<svg width="800" height="800" viewBox="0 0 800 800" fill="none" xmlns="http://www.w3.org/2000/svg">
<path d="M51.6325 673.195H34.543" stroke="#263238" stroke-width="1.1133" stroke-miterlimit="10"/>
<path d="M743.854 673.195H78.6636" stroke="#263238" stroke-width="1.1133" stroke-miterlimit="10"/>
<path d="M544.236 758.754C575.481 758.754 600.81 750.929 600.81 741.276C600.81 731.623 575.481 723.798 544.236 723.798C512.991 723.798 487.662 731.623 487.662 741.276C487.662 750.929 512.991 758.754 544.236 758.754Z" fill="#263238"/>
<path d="M251.833 780.978C192.95 780.978 184.257 771.424 183.4 763.709C183.206 762.103 183.347 760.467 183.812 758.933C184.277 757.398 185.054 756.005 186.081 754.866C201.942 736.175 293.347 744.078 419.825 755.012C437.473 756.538 455.717 758.106 474.426 759.674C602.225 770.337 653.68 768.957 664.31 754.531C666.47 751.584 666.916 747.904 665.725 742.928C660.661 722.126 592.973 722.022 567.339 723.652C566.752 723.687 566.177 723.46 565.738 723.022C565.299 722.584 565.032 721.969 564.993 721.311C564.976 720.985 565.016 720.659 565.111 720.35C565.207 720.042 565.356 719.758 565.55 719.515C565.744 719.272 565.979 719.075 566.241 718.934C566.503 718.794 566.788 718.713 567.078 718.697C576.889 718.049 663.081 713.178 669.988 741.695C671.57 748.259 670.844 753.507 667.717 757.772C655.784 774.037 606.935 775.772 474.109 764.692C455.382 763.124 437.138 761.556 419.49 760.03C298.932 749.576 203.692 741.36 189.283 758.357C188.713 758.965 188.281 759.716 188.022 760.548C187.763 761.381 187.685 762.271 187.794 763.145C188.334 768.079 198.963 779.118 284.597 775.271C332.497 773.18 380.619 767.264 381.103 767.201C381.664 767.175 382.212 767.39 382.637 767.8C383.063 768.211 383.333 768.788 383.395 769.414C383.456 770.04 383.304 770.669 382.968 771.174C382.633 771.679 382.139 772.023 381.587 772.135C381.103 772.135 332.832 778.072 284.784 780.226C272.422 780.727 261.476 780.978 251.833 780.978Z" fill="white" stroke="#263238" stroke-width="1.1133" stroke-miterlimit="10"/>
<path d="M523.2 756.621C560.018 756.621 589.864 723.102 589.864 681.755C589.864 640.407 560.018 606.888 523.2 606.888C486.382 606.888 456.536 640.407 456.536 681.755C456.536 723.102 486.382 756.621 523.2 756.621Z" fill="white"/>
<path d="M523.2 756.622C535.332 756.63 547.235 752.92 557.628 745.891C568.02 738.862 576.507 728.78 582.173 716.733C587.839 704.686 590.47 691.131 589.781 677.528C589.093 663.926 585.112 650.793 578.266 639.544C577.54 672.159 561.512 720.307 478.149 736.865C490.421 749.576 506.505 756.63 523.2 756.622V756.622Z" fill="#0690FF"/>
<path opacity="0.3" d="M523.2 756.622C535.332 756.63 547.235 752.92 557.628 745.891C568.02 738.862 576.507 728.78 582.173 716.733C587.839 704.686 590.47 691.131 589.781 677.528C589.093 663.926 585.112 650.793 578.266 639.544C577.54 672.159 561.512 720.307 478.149 736.865C490.421 749.576 506.505 756.63 523.2 756.622V756.622Z" fill="white"/>
<path d="M556.002 711.108C544.114 698.119 529.678 688.445 513.855 682.863C529.678 688.445 544.114 698.119 556.002 711.108H559.539C567.385 702.372 574.142 692.484 579.625 681.713C548.406 644.666 518.043 648.451 518.043 648.451C518.043 648.451 548.499 644.666 579.719 681.755C581.431 678.305 582.865 675.065 584.038 672.075C571.044 651.628 548.667 637.684 536.66 635.593L533.867 634.84C529.564 633.962 525.16 633.891 520.836 634.631C525.16 633.891 529.564 633.962 533.867 634.84L541.816 609.752C538.06 608.547 534.216 607.714 530.33 607.265C525.173 616.61 511.9 646.464 511.9 705.693C511.9 646.464 525.173 616.61 530.33 607.265C528.096 607.035 525.862 606.888 523.572 606.888C521.053 606.897 518.536 607.064 516.033 607.39C508.177 620.728 493.154 652.235 492.148 699.525C507.73 705.902 528.58 710.669 556.002 711.108ZM571.062 695.867C544.516 666.807 515.214 665.28 515.214 665.28C515.214 665.28 544.516 666.807 571.062 695.867V695.867Z" stroke="#263238" stroke-width="1.1133" stroke-linecap="round" stroke-linejoin="round"/>
<path d="M492.074 699.651C493.079 652.36 508.102 620.854 515.958 607.516C509.811 608.29 503.79 610.021 498.068 612.659C483.959 635.904 475.989 663.155 475.077 691.268C480.544 694.545 486.226 697.348 492.074 699.651Z" stroke="#263238" stroke-width="1.1133" stroke-linecap="round" stroke-linejoin="round"/>
<path d="M498.068 612.596C486.556 617.926 476.599 626.765 469.323 638.113C462.047 649.462 457.74 662.869 456.889 676.821C462.371 682.481 468.485 687.316 475.077 691.205C475.989 663.092 483.959 635.841 498.068 612.596V612.596Z" stroke="#263238" stroke-width="1.1133" stroke-linecap="round" stroke-linejoin="round"/>
<path d="M583.944 672.075C585.395 668.475 586.639 664.774 587.667 660.995C584.884 650.332 580.034 640.493 573.463 632.185L568.307 651.503L573.37 632.185C569.259 627.005 564.529 622.488 559.315 618.763L553.637 642.618L559.352 618.868C553.902 614.952 547.968 611.959 541.742 609.982L533.792 635.07C545.967 637.036 564.788 645.085 583.944 672.075Z" stroke="#263238" stroke-width="1.1133" stroke-linecap="round" stroke-linejoin="round"/>
<path d="M590.218 685.288C590.218 684.201 590.218 683.197 590.218 682.027C590.217 674.909 589.315 667.827 587.537 660.995C586.508 664.774 585.264 668.475 583.814 672.075C583.015 674.284 582.069 676.423 580.984 678.473C581.096 678.598 579.383 681.629 579.495 681.755C579.606 681.88 577.633 685.518 577.633 685.393C573.202 694.236 559.836 711.171 560.059 711.171C559.836 711.171 552.836 718.3 549.02 721.896C542.04 728.389 534.641 734.294 526.886 739.562H527.37H526.886C519.258 744.739 511.37 749.416 503.262 753.569C509.773 755.87 516.559 757.041 523.386 757.04C524.521 757.04 525.638 757.04 526.737 757.04C540.382 748.698 562.07 729.673 590.218 685.288Z" stroke="#263238" stroke-width="1.1133" stroke-linecap="round" stroke-linejoin="round"/>
<path d="M590.218 685.288C562.07 729.673 540.383 748.698 526.849 756.851C543.445 755.913 559.135 748.061 570.852 734.828C582.57 721.595 589.475 703.932 590.218 685.288V685.288Z" stroke="#263238" stroke-width="1.1133" stroke-linecap="round" stroke-linejoin="round"/>
<path d="M471.298 728.774C479.558 740.436 490.725 749.068 503.374 753.57C511.482 749.416 519.37 744.739 526.998 739.562C511.1 742.865 486.228 734.67 471.298 728.774Z" stroke="#263238" stroke-width="1.1133" stroke-linecap="round" stroke-linejoin="round"/>
<path d="M526.998 739.562C534.753 734.294 542.152 728.389 549.132 721.896C501.121 727.415 471.503 710.711 458.918 701.219C461.294 711.271 465.51 720.656 471.298 728.774C486.228 734.67 511.099 742.865 526.998 739.562Z" stroke="#263238" stroke-width="1.1133" stroke-linecap="round" stroke-linejoin="round"/>
<path d="M549.132 721.895C552.948 718.3 556.392 714.704 559.539 711.149H556.001C556.262 711.421 556.523 711.693 556.765 711.986C556.523 711.693 556.262 711.421 556.001 711.149C528.58 710.71 507.73 705.944 492.074 699.693C469.195 690.786 460.948 681.211 456.889 676.925C456.778 678.64 456.703 680.333 456.703 682.068C456.705 688.546 457.45 694.996 458.918 701.261C471.503 710.71 501.121 727.415 549.132 721.895Z" stroke="#263238" stroke-width="1.1133" stroke-linecap="round" stroke-linejoin="round"/>
<path d="M523.2 756.621C560.018 756.621 589.864 723.102 589.864 681.755C589.864 640.407 560.018 606.888 523.2 606.888C486.382 606.888 456.536 640.407 456.536 681.755C456.536 723.102 486.382 756.621 523.2 756.621Z" stroke="#263238" stroke-width="1.1133" stroke-linecap="round" stroke-linejoin="round"/>
<path d="M595.334 548.487C595.334 548.487 590.773 531.866 577.481 525.887C568.173 521.706 557.618 522.835 548.031 524.695C530.196 528.187 514.633 536.152 497.767 542.947C497.767 542.947 504.99 539.957 534.608 556.181C545.517 562.139 557.99 566.78 570.463 566.467C580.46 566.216 595.837 562.996 595.334 548.487Z" fill="#0690FF"/>
<path d="M596.935 499.628C596.935 499.628 596.935 482.213 585.765 472.199C577.984 465.216 567.521 462.811 557.841 461.494C539.858 459.048 522.917 461.62 504.971 462.644C504.971 462.644 512.66 462.142 536.842 487.272C545.759 496.513 556.519 505.001 568.489 508.743C578.132 511.754 593.658 513.677 596.935 499.628Z" fill="#0690FF"/>
<path d="M627.484 564.25C627.484 564.25 615.402 553.358 615.365 537.281C615.365 526.096 620.15 515.413 625.232 506.109C634.689 488.757 647.013 475.46 658.89 460.303C658.89 460.303 653.752 466.742 656.246 503.642C657.177 517.231 656.395 531.971 651.536 544.87C647.72 555.24 639.399 570.104 627.484 564.25Z" fill="#0690FF"/>
<path d="M670.301 590.969C670.301 590.969 668.588 573.68 678.678 562.265C685.678 554.341 695.824 550.578 705.262 548.027C722.873 543.261 739.962 543.616 757.89 542.299C757.89 542.299 750.22 542.78 728.774 570.878C720.881 581.331 711.07 591.053 699.51 596.342C690.295 600.586 675.067 604.496 670.301 590.969Z" fill="#0690FF"/>
<path d="M667.565 529.316C667.565 529.316 652.206 526.953 644.834 513.176C639.696 503.601 638.933 491.642 639.026 480.729C639.212 460.407 643.717 441.863 646.975 422.023C646.975 422.023 645.505 430.511 664.53 460.721C671.53 471.864 677.561 484.952 679.423 498.834C680.745 509.977 680.391 527.518 667.565 529.316Z" fill="#0690FF"/>
<path d="M711.759 498.353C711.759 498.353 722.798 510.562 737.021 508.806C746.906 507.531 755.805 500.903 763.437 494.171C777.66 481.627 787.992 466.282 799.999 451.292C799.999 451.292 794.917 457.752 761.985 459.278C749.866 459.843 736.928 462.414 726.075 469.355C717.362 474.833 705.206 485.851 711.759 498.353Z" fill="#0690FF"/>
<path d="M698.97 486.29C698.97 486.29 714.384 488.025 724.437 476.589C731.436 468.624 734.676 457.209 736.854 446.567C740.912 426.769 740.428 407.555 741.396 387.422C741.396 387.422 741.061 396.036 716.246 420.413C707.124 429.382 698.467 440.504 693.906 453.529C690.202 464.003 686.869 481.147 698.97 486.29Z" fill="#0690FF"/>
<path d="M643.922 654.818L617.301 581.247L586.604 496.178" stroke="#263238" stroke-width="1.1133" stroke-linecap="round" stroke-linejoin="round"/>
<path d="M650.065 642.17L676.668 539.874L705.337 476.652" stroke="#263238" stroke-width="1.1133" stroke-linecap="round" stroke-linejoin="round"/>
<path d="M660.286 601.945L686.907 584.697" stroke="#263238" stroke-width="1.1133" stroke-linecap="round" stroke-linejoin="round"/>
<path d="M676.667 539.873L663.357 506.527" stroke="#263238" stroke-width="1.1133" stroke-linecap="round" stroke-linejoin="round"/>
<path d="M693.329 506.695L725.796 490.429" stroke="#263238" stroke-width="1.1133" stroke-linecap="round" stroke-linejoin="round"/>
<path d="M622.42 595.046L633.683 544.473" stroke="#263238" stroke-width="1.1133" stroke-linecap="round" stroke-linejoin="round"/>
<path d="M607.49 556.599L581.483 541.023" stroke="#263238" stroke-width="1.1133" stroke-linecap="round" stroke-linejoin="round"/>
<path d="M657.568 691.593H635.377C631.75 691.591 628.236 690.168 625.443 687.569C622.649 684.97 620.751 681.358 620.075 677.355L612.182 630.671H680.763L672.889 677.355C672.209 681.36 670.307 684.972 667.51 687.571C664.714 690.17 661.198 691.592 657.568 691.593V691.593Z" fill="#263238" stroke="#263238" stroke-width="1.1133" stroke-linecap="round" stroke-linejoin="round"/>
<path d="M32.3636 641V617.727H39.5341C41.0114 617.727 42.2765 618.03 43.3295 618.636C44.3902 619.242 45.2045 620.072 45.7727 621.125C46.3409 622.178 46.625 623.379 46.625 624.727C46.625 626.061 46.3409 627.254 45.7727 628.307C45.2045 629.36 44.3902 630.193 43.3295 630.807C42.2765 631.413 41.0152 631.716 39.5455 631.716H33.3636V630.398H39.5114C40.7083 630.398 41.7311 630.155 42.5795 629.67C43.428 629.178 44.0795 628.508 44.5341 627.659C44.9886 626.803 45.2159 625.826 45.2159 624.727C45.2159 623.621 44.9886 622.64 44.5341 621.784C44.0795 620.928 43.4242 620.258 42.5682 619.773C41.7197 619.288 40.697 619.045 39.5 619.045H33.7841V641H32.3636ZM48.8097 641H47.3097L55.7074 617.727H57.3438L65.7415 641H64.2415L56.5824 619.557H56.4688L48.8097 641ZM50.9347 632.239H62.1165V633.557H50.9347V632.239ZM55.8551 615.239L58.9006 610.216H60.5483L57.1278 615.239H55.8551ZM85.2955 625C85.1212 624.212 84.8258 623.451 84.4091 622.716C83.9924 621.973 83.4583 621.307 82.8068 620.716C82.1629 620.117 81.4053 619.644 80.5341 619.295C79.6705 618.947 78.7008 618.773 77.625 618.773C75.9811 618.773 74.5227 619.205 73.25 620.068C71.9848 620.924 70.9924 622.148 70.2727 623.739C69.5606 625.322 69.2045 627.197 69.2045 629.364C69.2045 631.508 69.5606 633.375 70.2727 634.966C70.9848 636.557 71.9811 637.788 73.2614 638.659C74.5492 639.523 76.0455 639.955 77.75 639.955C79.2727 639.955 80.6212 639.602 81.7955 638.898C82.9773 638.193 83.8977 637.186 84.5568 635.875C85.2159 634.564 85.5379 632.996 85.5227 631.17L86.0227 631.409H78.1136V630.091H86.9091V631.409C86.9091 633.462 86.5152 635.231 85.7273 636.716C84.947 638.193 83.8636 639.33 82.4773 640.125C81.0985 640.92 79.5227 641.318 77.75 641.318C75.75 641.318 74.0038 640.822 72.5114 639.83C71.0189 638.837 69.8598 637.447 69.0341 635.659C68.2159 633.864 67.8068 631.765 67.8068 629.364C67.8068 627.561 68.0417 625.924 68.5114 624.455C68.9811 622.985 69.6515 621.727 70.5227 620.682C71.3939 619.629 72.4318 618.822 73.6364 618.261C74.8409 617.693 76.1705 617.409 77.625 617.409C78.9432 617.409 80.1288 617.629 81.1818 618.068C82.2348 618.5 83.1439 619.083 83.9091 619.818C84.6818 620.545 85.3068 621.36 85.7841 622.261C86.2614 623.155 86.5833 624.068 86.75 625H85.2955ZM94.0966 617.727V641H92.6761V617.727H94.0966ZM118.616 617.727V641H117.23L102.389 620.307H102.253V641H100.832V617.727H102.23L117.071 638.443H117.207V617.727H118.616ZM124.435 641H122.935L131.332 617.727H132.969L141.366 641H139.866L132.207 619.557H132.094L124.435 641ZM126.56 632.239H137.741V633.557H126.56V632.239ZM172.491 617.727V641H171.105L156.264 620.307H156.128V641H154.707V617.727H156.105L170.946 638.443H171.082V617.727H172.491ZM178.31 641H176.81L185.207 617.727H186.844L195.241 641H193.741L186.082 619.557H185.969L178.31 641ZM180.435 632.239H191.616V633.557H180.435V632.239ZM181.878 614.716L180.696 614.625C180.764 613.761 181.094 613.057 181.685 612.511C182.283 611.966 183.003 611.693 183.844 611.693C184.336 611.693 184.764 611.784 185.128 611.966C185.491 612.14 185.829 612.341 186.139 612.568C186.45 612.788 186.764 612.985 187.082 613.159C187.408 613.333 187.779 613.42 188.196 613.42C188.681 613.42 189.12 613.258 189.514 612.932C189.908 612.598 190.143 612.178 190.219 611.67L191.389 611.852C191.276 612.701 190.916 613.386 190.31 613.909C189.711 614.424 189.022 614.682 188.241 614.682C187.741 614.682 187.317 614.595 186.969 614.42C186.628 614.246 186.31 614.045 186.014 613.818C185.719 613.591 185.408 613.39 185.082 613.216C184.757 613.042 184.359 612.955 183.889 612.955C183.351 612.955 182.893 613.121 182.514 613.455C182.135 613.788 181.923 614.208 181.878 614.716ZM217 629.364C217 631.765 216.583 633.864 215.75 635.659C214.917 637.447 213.758 638.837 212.273 639.83C210.795 640.822 209.091 641.318 207.159 641.318C205.22 641.318 203.508 640.822 202.023 639.83C200.545 638.83 199.39 637.436 198.557 635.648C197.723 633.852 197.307 631.758 197.307 629.364C197.307 626.962 197.723 624.867 198.557 623.08C199.398 621.292 200.557 619.902 202.034 618.909C203.511 617.909 205.22 617.409 207.159 617.409C209.091 617.409 210.795 617.905 212.273 618.898C213.758 619.89 214.917 621.284 215.75 623.08C216.583 624.867 217 626.962 217 629.364ZM215.614 629.364C215.614 627.205 215.25 625.333 214.523 623.75C213.803 622.167 212.807 620.943 211.534 620.08C210.261 619.208 208.803 618.773 207.159 618.773C205.515 618.773 204.057 619.205 202.784 620.068C201.511 620.924 200.511 622.148 199.784 623.739C199.064 625.322 198.705 627.197 198.705 629.364C198.705 631.508 199.061 633.375 199.773 634.966C200.492 636.549 201.489 637.777 202.761 638.648C204.034 639.519 205.5 639.955 207.159 639.955C208.803 639.955 210.261 639.523 211.534 638.659C212.807 637.788 213.803 636.561 214.523 634.977C215.25 633.394 215.614 631.523 215.614 629.364ZM231.551 641V617.727H244.506V619.045H232.972V628.693H243.812V630.011H232.972V639.682H244.778V641H231.551ZM268.179 617.727V641H266.793L251.952 620.307H251.815V641H250.395V617.727H251.793L266.634 638.443H266.77V617.727H268.179ZM292.622 625H291.168C291.016 624.212 290.732 623.451 290.315 622.716C289.899 621.973 289.361 621.307 288.702 620.716C288.05 620.117 287.293 619.644 286.429 619.295C285.565 618.947 284.611 618.773 283.565 618.773C282.035 618.773 280.626 619.182 279.338 620C278.058 620.811 277.031 622.004 276.259 623.58C275.493 625.155 275.111 627.083 275.111 629.364C275.111 631.659 275.493 633.595 276.259 635.17C277.031 636.746 278.058 637.939 279.338 638.75C280.626 639.553 282.035 639.955 283.565 639.955C284.611 639.955 285.565 639.784 286.429 639.443C287.293 639.095 288.05 638.625 288.702 638.034C289.361 637.436 289.899 636.765 290.315 636.023C290.732 635.28 291.016 634.515 291.168 633.727H292.622C292.455 634.667 292.134 635.587 291.656 636.489C291.187 637.39 290.565 638.208 289.793 638.943C289.027 639.67 288.122 640.25 287.077 640.682C286.039 641.106 284.868 641.318 283.565 641.318C281.626 641.318 279.918 640.826 278.44 639.841C276.963 638.848 275.804 637.455 274.963 635.659C274.13 633.864 273.713 631.765 273.713 629.364C273.713 626.962 274.13 624.864 274.963 623.068C275.804 621.273 276.963 619.883 278.44 618.898C279.918 617.905 281.626 617.409 283.565 617.409C284.868 617.409 286.039 617.625 287.077 618.057C288.122 618.481 289.027 619.057 289.793 619.784C290.565 620.504 291.187 621.314 291.656 622.216C292.134 623.117 292.455 624.045 292.622 625ZM316.594 629.364C316.594 631.765 316.177 633.864 315.344 635.659C314.51 637.447 313.351 638.837 311.866 639.83C310.389 640.822 308.685 641.318 306.753 641.318C304.813 641.318 303.101 640.822 301.616 639.83C300.139 638.83 298.984 637.436 298.151 635.648C297.317 633.852 296.901 631.758 296.901 629.364C296.901 626.962 297.317 624.867 298.151 623.08C298.991 621.292 300.151 619.902 301.628 618.909C303.105 617.909 304.813 617.409 306.753 617.409C308.685 617.409 310.389 617.905 311.866 618.898C313.351 619.89 314.51 621.284 315.344 623.08C316.177 624.867 316.594 626.962 316.594 629.364ZM315.207 629.364C315.207 627.205 314.844 625.333 314.116 623.75C313.397 622.167 312.401 620.943 311.128 620.08C309.855 619.208 308.397 618.773 306.753 618.773C305.109 618.773 303.651 619.205 302.378 620.068C301.105 620.924 300.105 622.148 299.378 623.739C298.658 625.322 298.298 627.197 298.298 629.364C298.298 631.508 298.654 633.375 299.366 634.966C300.086 636.549 301.082 637.777 302.355 638.648C303.628 639.519 305.094 639.955 306.753 639.955C308.397 639.955 309.855 639.523 311.128 638.659C312.401 637.788 313.397 636.561 314.116 634.977C314.844 633.394 315.207 631.523 315.207 629.364ZM339.929 617.727V641H338.543L323.702 620.307H323.565V641H322.145V617.727H323.543L338.384 638.443H338.52V617.727H339.929ZM345.099 619.045V617.727H361.406V619.045H353.963V641H352.543V619.045H345.099ZM366.582 641V617.727H373.753C375.223 617.727 376.488 618.015 377.548 618.591C378.609 619.167 379.423 619.966 379.991 620.989C380.56 622.004 380.844 623.186 380.844 624.534C380.844 625.867 380.56 627.042 379.991 628.057C379.423 629.064 378.609 629.852 377.548 630.42C376.495 630.989 375.234 631.273 373.764 631.273H367.344V629.943H373.73C374.927 629.943 375.95 629.72 376.798 629.273C377.647 628.826 378.298 628.201 378.753 627.398C379.207 626.587 379.435 625.633 379.435 624.534C379.435 623.428 379.207 622.466 378.753 621.648C378.298 620.822 377.643 620.182 376.787 619.727C375.938 619.273 374.916 619.045 373.719 619.045H368.003V641H366.582ZM376.139 630.455L381.866 641H380.23L374.537 630.455H376.139ZM385.622 641H384.122L392.52 617.727H394.156L402.554 641H401.054L393.395 619.557H393.281L385.622 641ZM387.747 632.239H398.929V633.557H387.747V632.239ZM413.349 641H406.895V617.727H413.849C416.031 617.727 417.899 618.189 419.452 619.114C421.005 620.038 422.194 621.364 423.02 623.091C423.853 624.811 424.266 626.875 424.259 629.284C424.251 631.746 423.819 633.852 422.963 635.602C422.107 637.345 420.868 638.682 419.247 639.614C417.626 640.538 415.66 641 413.349 641ZM408.315 639.682H413.293C415.368 639.682 417.118 639.269 418.543 638.443C419.967 637.61 421.043 636.417 421.77 634.864C422.505 633.311 422.868 631.451 422.861 629.284C422.861 627.148 422.509 625.318 421.804 623.795C421.099 622.265 420.073 621.091 418.724 620.273C417.384 619.455 415.74 619.045 413.793 619.045H408.315V639.682ZM427.81 641H426.31L434.707 617.727H436.344L444.741 641H443.241L435.582 619.557H435.469L427.81 641ZM429.935 632.239H441.116V633.557H429.935V632.239Z" fill="black"/>
<path d="M50.875 579.364C50.875 581.765 50.4583 583.864 49.625 585.659C48.7917 587.447 47.6326 588.837 46.1477 589.83C44.6705 590.822 42.9659 591.318 41.0341 591.318C39.0947 591.318 37.3826 590.822 35.8977 589.83C34.4205 588.83 33.2652 587.436 32.4318 585.648C31.5985 583.852 31.1818 581.758 31.1818 579.364C31.1818 576.962 31.5985 574.867 32.4318 573.08C33.2727 571.292 34.4318 569.902 35.9091 568.909C37.3864 567.909 39.0947 567.409 41.0341 567.409C42.9659 567.409 44.6705 567.905 46.1477 568.898C47.6326 569.89 48.7917 571.284 49.625 573.08C50.4583 574.867 50.875 576.962 50.875 579.364ZM49.4886 579.364C49.4886 577.205 49.125 575.333 48.3977 573.75C47.678 572.167 46.6818 570.943 45.4091 570.08C44.1364 569.208 42.678 568.773 41.0341 568.773C39.3902 568.773 37.9318 569.205 36.6591 570.068C35.3864 570.924 34.3864 572.148 33.6591 573.739C32.9394 575.322 32.5795 577.197 32.5795 579.364C32.5795 581.508 32.9356 583.375 33.6477 584.966C34.3674 586.549 35.3636 587.777 36.6364 588.648C37.9091 589.519 39.375 589.955 41.0341 589.955C42.678 589.955 44.1364 589.523 45.4091 588.659C46.6818 587.788 47.678 586.561 48.3977 584.977C49.125 583.394 49.4886 581.523 49.4886 579.364ZM74.9375 579.364C74.9375 581.765 74.5208 583.864 73.6875 585.659C72.8542 587.447 71.6951 588.837 70.2102 589.83C68.733 590.822 67.0284 591.318 65.0966 591.318C63.1572 591.318 61.4451 590.822 59.9602 589.83C58.483 588.83 57.3277 587.436 56.4943 585.648C55.661 583.852 55.2443 581.758 55.2443 579.364C55.2443 576.962 55.661 574.867 56.4943 573.08C57.3352 571.292 58.4943 569.902 59.9716 568.909C61.4489 567.909 63.1572 567.409 65.0966 567.409C67.0284 567.409 68.733 567.905 70.2102 568.898C71.6951 569.89 72.8542 571.284 73.6875 573.08C74.5208 574.867 74.9375 576.962 74.9375 579.364ZM73.5511 579.364C73.5511 577.205 73.1875 575.333 72.4602 573.75C71.7405 572.167 70.7443 570.943 69.4716 570.08C68.1989 569.208 66.7405 568.773 65.0966 568.773C63.4527 568.773 61.9943 569.205 60.7216 570.068C59.4489 570.924 58.4489 572.148 57.7216 573.739C57.0019 575.322 56.642 577.197 56.642 579.364C56.642 581.508 56.9981 583.375 57.7102 584.966C58.4299 586.549 59.4261 587.777 60.6989 588.648C61.9716 589.519 63.4375 589.955 65.0966 589.955C66.7405 589.955 68.1989 589.523 69.4716 588.659C70.7443 587.788 71.7405 586.561 72.4602 584.977C73.1875 583.394 73.5511 581.523 73.5511 579.364ZM80.4886 591V567.727H87.6591C89.1364 567.727 90.4015 568.03 91.4545 568.636C92.5152 569.242 93.3295 570.072 93.8977 571.125C94.4659 572.178 94.75 573.379 94.75 574.727C94.75 576.061 94.4659 577.254 93.8977 578.307C93.3295 579.36 92.5152 580.193 91.4545 580.807C90.4015 581.413 89.1402 581.716 87.6705 581.716H81.4886V580.398H87.6364C88.8333 580.398 89.8561 580.155 90.7045 579.67C91.553 579.178 92.2045 578.508 92.6591 577.659C93.1136 576.803 93.3409 575.826 93.3409 574.727C93.3409 573.621 93.1136 572.64 92.6591 571.784C92.2045 570.928 91.5492 570.258 90.6932 569.773C89.8447 569.288 88.822 569.045 87.625 569.045H81.9091V591H80.4886ZM112.753 573.545C112.632 572.098 112.041 570.928 110.98 570.034C109.927 569.14 108.563 568.693 106.889 568.693C105.76 568.693 104.757 568.902 103.878 569.318C102.999 569.735 102.31 570.303 101.81 571.023C101.31 571.742 101.06 572.568 101.06 573.5C101.06 574.098 101.173 574.64 101.401 575.125C101.635 575.602 101.965 576.03 102.389 576.409C102.813 576.78 103.317 577.106 103.901 577.386C104.484 577.667 105.128 577.913 105.832 578.125L108.378 578.875C109.249 579.14 110.052 579.447 110.787 579.795C111.529 580.144 112.173 580.561 112.719 581.045C113.272 581.523 113.7 582.083 114.003 582.727C114.313 583.371 114.469 584.114 114.469 584.955C114.469 586.182 114.151 587.28 113.514 588.25C112.885 589.22 111.988 589.985 110.821 590.545C109.662 591.098 108.295 591.375 106.719 591.375C105.219 591.375 103.912 591.121 102.798 590.614C101.692 590.106 100.817 589.402 100.173 588.5C99.5294 587.591 99.1657 586.545 99.0824 585.364H100.537C100.613 586.326 100.92 587.159 101.457 587.864C102.003 588.561 102.726 589.098 103.628 589.477C104.529 589.856 105.56 590.045 106.719 590.045C107.969 590.045 109.071 589.833 110.026 589.409C110.98 588.977 111.726 588.379 112.264 587.614C112.802 586.848 113.071 585.958 113.071 584.943C113.071 584.125 112.878 583.424 112.491 582.841C112.105 582.258 111.533 581.754 110.776 581.33C110.026 580.905 109.094 580.527 107.98 580.193L105.264 579.375C103.446 578.822 102.056 578.068 101.094 577.114C100.139 576.159 99.6619 574.97 99.6619 573.545C99.6619 572.348 99.9801 571.288 100.616 570.364C101.253 569.432 102.116 568.701 103.207 568.17C104.306 567.64 105.545 567.375 106.923 567.375C108.31 567.375 109.533 567.644 110.594 568.182C111.654 568.712 112.495 569.443 113.116 570.375C113.738 571.299 114.082 572.356 114.151 573.545H112.753ZM120.889 591.148C120.548 591.148 120.257 591.03 120.014 590.795C119.779 590.553 119.662 590.261 119.662 589.92C119.662 589.587 119.779 589.299 120.014 589.057C120.257 588.814 120.548 588.693 120.889 588.693C121.223 588.693 121.51 588.814 121.753 589.057C121.995 589.299 122.116 589.587 122.116 589.92C122.116 590.148 122.06 590.356 121.946 590.545C121.84 590.727 121.692 590.875 121.503 590.989C121.321 591.095 121.116 591.148 120.889 591.148ZM129.233 591.148C128.892 591.148 128.6 591.03 128.358 590.795C128.123 590.553 128.006 590.261 128.006 589.92C128.006 589.587 128.123 589.299 128.358 589.057C128.6 588.814 128.892 588.693 129.233 588.693C129.566 588.693 129.854 588.814 130.097 589.057C130.339 589.299 130.46 589.587 130.46 589.92C130.46 590.148 130.403 590.356 130.29 590.545C130.184 590.727 130.036 590.875 129.847 590.989C129.665 591.095 129.46 591.148 129.233 591.148ZM137.577 591.148C137.236 591.148 136.944 591.03 136.702 590.795C136.467 590.553 136.349 590.261 136.349 589.92C136.349 589.587 136.467 589.299 136.702 589.057C136.944 588.814 137.236 588.693 137.577 588.693C137.91 588.693 138.198 588.814 138.44 589.057C138.683 589.299 138.804 589.587 138.804 589.92C138.804 590.148 138.747 590.356 138.634 590.545C138.527 590.727 138.38 590.875 138.19 590.989C138.009 591.095 137.804 591.148 137.577 591.148Z" fill="black"/>
<path d="M354.107 593.227C312.668 593.227 287.759 551.936 278.917 515.621L278.619 514.346C278.148 512.585 277.998 510.736 278.178 508.908C278.358 507.081 278.864 505.313 279.667 503.71C280.469 502.107 281.551 500.703 282.848 499.581C284.145 498.459 285.63 497.642 287.214 497.179C288.799 496.716 290.45 496.617 292.07 496.887C293.689 497.158 295.243 497.792 296.639 498.753C298.035 499.713 299.245 500.98 300.195 502.478C301.145 503.975 301.816 505.672 302.168 507.468L302.392 508.409C309.112 536.047 327.412 567.637 356.769 565.818C362.29 565.603 367.708 564.087 372.673 561.368C377.638 558.648 382.038 554.787 385.587 550.034C401.69 529.294 408.894 484.199 407.293 461.452C407.142 459.993 407.254 458.514 407.623 457.104C407.992 455.694 408.61 454.382 409.44 453.246C410.271 452.111 411.297 451.175 412.457 450.494C413.617 449.814 414.887 449.403 416.191 449.286C417.496 449.17 418.808 449.35 420.049 449.815C421.29 450.281 422.435 451.022 423.415 451.996C424.395 452.97 425.19 454.155 425.753 455.482C426.316 456.808 426.635 458.249 426.691 459.717C428.553 485.035 426.096 539.455 403.924 567.992C398.249 575.496 391.252 581.599 383.374 585.917C375.495 590.235 366.906 592.674 358.147 593.08C356.788 593.185 355.429 593.227 354.107 593.227Z" fill="white"/>
<path d="M416.21 449.682C413.638 449.916 411.255 451.288 409.583 453.495C407.911 455.702 407.087 458.564 407.293 461.452C408.075 472.554 406.753 488.965 403.328 505.356C408.22 505.124 413.112 505.831 417.793 507.447C416.685 523.176 411.767 538.265 403.57 551.079C385.494 579.282 358.389 588.293 337.297 584.906C327.858 583.401 317.042 577.84 307.939 572.132C320.291 585.66 336.854 593.243 354.107 593.269C355.429 593.269 356.788 593.269 358.147 593.143C366.906 592.737 375.495 590.298 383.373 585.98C391.252 581.662 398.249 575.559 403.924 568.055C426.095 539.518 428.478 485.098 426.691 459.78C426.599 458.341 426.255 456.938 425.677 455.65C425.099 454.362 424.3 453.215 423.326 452.276C422.351 451.337 421.221 450.625 419.999 450.179C418.778 449.734 417.49 449.565 416.21 449.682V449.682Z" fill="#0690FF"/>
<path opacity="0.5" d="M416.21 449.682C413.638 449.916 411.255 451.288 409.583 453.495C407.911 455.702 407.087 458.564 407.293 461.452C408.075 472.554 406.753 488.965 403.328 505.356C408.22 505.124 413.112 505.831 417.793 507.447C416.685 523.176 411.767 538.265 403.57 551.079C385.494 579.282 358.389 588.293 337.297 584.906C327.858 583.401 317.042 577.84 307.939 572.132C320.291 585.66 336.854 593.243 354.107 593.269C355.429 593.269 356.788 593.269 358.147 593.143C366.906 592.737 375.495 590.298 383.373 585.98C391.252 581.662 398.249 575.559 403.924 568.055C426.095 539.518 428.478 485.098 426.691 459.78C426.599 458.341 426.255 456.938 425.677 455.65C425.099 454.362 424.3 453.215 423.326 452.276C422.351 451.337 421.221 450.625 419.999 450.179C418.778 449.734 417.49 449.565 416.21 449.682V449.682Z" fill="white"/>
<path d="M354.107 593.227C312.668 593.227 287.759 551.936 278.917 515.621L278.619 514.346C278.148 512.585 277.998 510.736 278.178 508.908C278.358 507.081 278.864 505.313 279.667 503.71C280.469 502.107 281.551 500.703 282.848 499.581C284.145 498.459 285.63 497.642 287.214 497.179C288.799 496.716 290.45 496.617 292.07 496.887C293.689 497.158 295.243 497.792 296.639 498.753C298.035 499.713 299.245 500.98 300.195 502.478C301.145 503.975 301.816 505.672 302.168 507.468L302.392 508.409C309.112 536.047 327.412 567.637 356.769 565.818C362.29 565.603 367.708 564.087 372.673 561.368C377.638 558.648 382.038 554.787 385.587 550.034C401.69 529.294 408.894 484.199 407.293 461.452C407.142 459.993 407.254 458.514 407.623 457.104C407.992 455.694 408.61 454.382 409.44 453.246C410.271 452.111 411.297 451.175 412.457 450.494C413.617 449.814 414.887 449.403 416.191 449.286C417.496 449.17 418.808 449.35 420.049 449.815C421.29 450.281 422.435 451.022 423.415 451.996C424.395 452.97 425.19 454.155 425.753 455.482C426.316 456.808 426.635 458.249 426.691 459.717C428.553 485.035 426.096 539.455 403.924 567.992C398.249 575.496 391.252 581.599 383.374 585.917C375.495 590.235 366.906 592.674 358.147 593.08C356.788 593.185 355.429 593.227 354.107 593.227Z" stroke="#263238" stroke-width="1.1133" stroke-linecap="round" stroke-linejoin="round"/>
<path d="M330.204 564.94C331.191 559.818 320.282 567.825 311.141 575.289C314.522 578.498 318.162 581.346 322.013 583.798C325.271 577.839 329.255 569.874 330.204 564.94Z" fill="#0690FF" stroke="#263238" stroke-width="1.1133" stroke-linecap="round" stroke-linejoin="round"/>
<path d="M354.107 593.227C355.429 593.227 356.788 593.227 358.147 593.101C362.102 592.853 366.031 592.23 369.894 591.241C364.756 583.714 357.681 573.763 355.652 573.01C353.325 572.132 348.839 584.948 346.344 592.725C348.921 593.063 351.513 593.23 354.107 593.227V593.227Z" fill="#0690FF" stroke="#263238" stroke-width="1.1133" stroke-linecap="round" stroke-linejoin="round"/>
<path d="M302.392 508.409L302.168 507.468C301.816 505.672 301.145 503.975 300.195 502.478C299.245 500.98 298.035 499.713 296.639 498.753C295.243 497.792 293.689 497.158 292.07 496.887C290.45 496.617 288.799 496.716 287.214 497.179C285.63 497.642 284.145 498.459 282.848 499.581C281.551 500.703 280.469 502.108 279.667 503.71C278.864 505.313 278.358 507.081 278.178 508.908C277.998 510.736 278.148 512.585 278.619 514.346L278.917 515.622C282.021 528.375 286.789 540.542 293.065 551.727L315.237 539.873C309.423 530.263 305.081 519.628 302.392 508.409Z" fill="#0690FF" stroke="#263238" stroke-width="1.1133" stroke-linecap="round" stroke-linejoin="round"/>
<path d="M403.924 567.993C405.627 565.778 407.207 563.446 408.652 561.01C401.615 558.313 391.079 554.592 387.169 554.989C382.534 555.47 388.826 572.195 392.065 580.077C396.426 576.584 400.406 572.528 403.924 567.993V567.993Z" fill="#0690FF" stroke="#263238" stroke-width="1.1133" stroke-linecap="round" stroke-linejoin="round"/>
<path d="M404.314 523.315C403.57 524.988 412.673 532.43 418.816 537.218C420.765 530.706 422.332 524.057 423.508 517.315C416.061 518.987 405.04 521.684 404.314 523.315Z" fill="#0690FF" stroke="#263238" stroke-width="1.1133" stroke-linecap="round" stroke-linejoin="round"/>
<path d="M426.524 492.394C426.933 486.436 427.138 480.749 427.157 475.522C420.753 479.474 413.157 484.951 413.157 488.547C413.157 492.143 420.269 492.582 426.524 492.394Z" fill="#0690FF" stroke="#263238" stroke-width="1.1133" stroke-linecap="round" stroke-linejoin="round"/>
<path d="M326.294 330.64C326.294 330.64 308.218 389.429 317.954 435.173C320.838 448.559 326.436 461.016 334.312 471.573C342.188 482.129 352.128 490.5 363.359 496.032C363.359 496.032 336.943 506.486 342.881 522.563C348.82 538.64 371.587 528.291 379.015 523.085C386.443 517.88 395.769 502.283 397.073 491.872C397.901 486.552 398.213 481.148 398.003 475.753C398.003 475.753 428.106 472.115 448.49 453.383C448.49 453.383 466.567 469.502 479.542 466.387C492.517 463.271 511.04 437.243 509.179 413.848C507.317 390.454 495.31 390.475 487.975 394.029C484.168 395.646 480.696 398.122 477.773 401.304C477.773 401.304 488.422 386.67 477.773 366.453C474.631 360.523 470.327 355.474 465.189 351.689C460.051 347.903 454.213 345.481 448.118 344.606C448.118 344.606 442.533 311.301 425.89 298.82C409.248 286.339 349.918 273.418 326.294 330.64Z" fill="white"/>
<path d="M463.924 350.856C455.33 366.956 443.437 380.518 429.236 390.416C415.034 400.314 398.934 406.262 382.273 407.764C345.413 411.402 324.75 403.248 315.255 397.582C316.407 374.836 320.161 352.351 326.425 330.681C350.049 273.46 409.341 286.464 426.021 298.945C442.701 311.426 448.249 344.731 448.249 344.731C453.799 345.513 459.14 347.6 463.924 350.856ZM487.976 394.028C484.168 395.645 480.696 398.121 477.774 401.304C480.029 397.813 481.515 393.773 482.112 389.513C457.073 403.52 459.028 433.416 455.919 433.416C452.084 433.416 450.185 418.385 450.185 418.385C450.185 418.385 445.401 439.856 416.676 454.908C387.951 469.961 355.466 458.128 355.466 458.128C355.466 458.128 362.168 475.313 344.948 473.16C340.116 472.641 335.482 470.741 331.489 467.641C339.746 480.004 350.713 489.756 363.322 495.948C363.322 495.948 336.906 506.401 342.844 522.479C348.783 538.556 371.569 528.207 378.978 523.001C386.387 517.796 395.733 502.199 397.036 491.788C397.864 486.468 398.176 481.064 397.967 475.669C397.967 475.669 428.069 472.031 448.454 453.299C448.454 453.299 466.53 469.418 479.505 466.303C492.481 463.187 511.004 437.159 509.142 413.764C507.28 390.37 495.31 390.474 487.976 394.028Z" fill="#0690FF"/>
<path opacity="0.5" d="M463.924 350.856C455.33 366.956 443.437 380.518 429.236 390.416C415.034 400.314 398.934 406.262 382.273 407.764C345.413 411.402 324.75 403.248 315.255 397.582C316.407 374.836 320.161 352.351 326.425 330.681C350.049 273.46 409.341 286.464 426.021 298.945C442.701 311.426 448.249 344.731 448.249 344.731C453.799 345.513 459.14 347.6 463.924 350.856ZM487.976 394.028C484.168 395.645 480.696 398.121 477.774 401.304C480.029 397.813 481.515 393.773 482.112 389.513C457.073 403.52 459.028 433.416 455.919 433.416C452.084 433.416 450.185 418.385 450.185 418.385C450.185 418.385 445.401 439.856 416.676 454.908C387.951 469.961 355.466 458.128 355.466 458.128C355.466 458.128 362.168 475.313 344.948 473.16C340.116 472.641 335.482 470.741 331.489 467.641C339.746 480.004 350.713 489.756 363.322 495.948C363.322 495.948 336.906 506.401 342.844 522.479C348.783 538.556 371.569 528.207 378.978 523.001C386.387 517.796 395.733 502.199 397.036 491.788C397.864 486.468 398.176 481.064 397.967 475.669C397.967 475.669 428.069 472.031 448.454 453.299C448.454 453.299 466.53 469.418 479.505 466.303C492.481 463.187 511.004 437.159 509.142 413.764C507.28 390.37 495.31 390.474 487.976 394.028Z" fill="white"/>
<path d="M398.097 475.795C388.106 476.093 378.187 473.816 369.103 469.137C360.018 464.458 352.01 457.502 345.693 448.804" stroke="#263238" stroke-width="1.1133" stroke-linecap="round" stroke-linejoin="round"/>
<path d="M326.294 330.64C326.294 330.64 308.218 389.429 317.954 435.173C320.838 448.559 326.436 461.016 334.312 471.573C342.188 482.129 352.128 490.5 363.359 496.032C363.359 496.032 336.943 506.486 342.881 522.563C348.82 538.64 371.587 528.291 379.015 523.085C386.443 517.88 395.769 502.283 397.073 491.872C397.901 486.552 398.213 481.148 398.003 475.753C398.003 475.753 428.106 472.115 448.49 453.383C448.49 453.383 466.567 469.502 479.542 466.387C492.517 463.271 511.04 437.243 509.179 413.848C507.317 390.454 495.31 390.475 487.975 394.029C484.168 395.646 480.696 398.122 477.773 401.304C477.773 401.304 488.422 386.67 477.773 366.453C474.631 360.523 470.327 355.474 465.189 351.689C460.051 347.903 454.213 345.481 448.118 344.606C448.118 344.606 442.533 311.301 425.89 298.82C409.248 286.339 349.918 273.418 326.294 330.64Z" stroke="#263238" stroke-width="1.1133" stroke-linecap="round" stroke-linejoin="round"/>
<path d="M477.774 401.388C477.774 401.388 468.056 408.684 463.421 431.054" stroke="#263238" stroke-width="1.1133" stroke-linecap="round" stroke-linejoin="round"/>
<path d="M495.627 410.963C494.491 414.768 491.382 417.047 488.701 416.023C486.021 414.998 484.792 411.089 485.928 407.284C487.063 403.479 490.172 401.2 492.853 402.224C495.533 403.249 496.781 407.158 495.627 410.963Z" fill="white" stroke="#263238" stroke-width="1.1133" stroke-linecap="round" stroke-linejoin="round"/>
<path d="M505.214 417.737C504.078 421.542 500.97 423.821 498.289 422.796C495.608 421.772 494.361 417.862 495.515 414.057C496.669 410.252 499.76 407.973 502.44 408.998C505.121 410.022 506.368 413.932 505.214 417.737Z" fill="white" stroke="#263238" stroke-width="1.1133" stroke-linecap="round" stroke-linejoin="round"/>
<path d="M507.262 427.876C506.89 428.576 506.349 429.143 505.702 429.511C505.055 429.88 504.328 430.035 503.606 429.958C502.884 429.881 502.196 429.575 501.622 429.076C501.048 428.578 500.612 427.907 500.364 427.141C500.116 426.375 500.067 425.546 500.222 424.75C500.377 423.954 500.73 423.224 501.24 422.644C501.749 422.064 502.395 421.659 503.102 421.475C503.809 421.291 504.548 421.335 505.233 421.604C506.221 422.159 506.983 423.119 507.36 424.286C507.738 425.453 507.703 426.738 507.262 427.876V427.876Z" fill="white" stroke="#263238" stroke-width="1.1133" stroke-linecap="round" stroke-linejoin="round"/>
<path d="M495.031 441.8C491.68 448.595 484.978 451.605 480.045 448.532C475.111 445.459 473.846 437.493 477.196 430.698C480.547 423.904 487.249 420.893 492.182 423.967C497.116 427.04 498.382 435.005 495.031 441.8Z" fill="white" stroke="#263238" stroke-width="1.1133" stroke-linecap="round" stroke-linejoin="round"/>
<path d="M363.359 496.074C369.6 499.336 376.694 499.894 383.279 497.642" stroke="#263238" stroke-width="1.1133" stroke-linecap="round" stroke-linejoin="round"/>
<path d="M342.975 522.604C342.975 522.604 344.836 513.761 356.397 507.531" stroke="#263238" stroke-width="1.1133" stroke-linecap="round" stroke-linejoin="round"/>
<path d="M354.554 530.424C354.554 530.424 359.189 517.88 367.064 512.214" stroke="#263238" stroke-width="1.1133" stroke-linecap="round" stroke-linejoin="round"/>
<path d="M171.874 386.503C169.904 384.738 168.335 382.475 167.293 379.899C166.251 377.323 165.767 374.506 165.879 371.68V322.11H52.0233C49.2421 322.227 46.4713 321.668 43.9007 320.47C41.3301 319.272 39.0206 317.463 37.1304 315.169C33.4064 310.745 31.3632 304.866 31.4339 298.778C31.4188 293.832 32.7149 288.992 35.1571 284.876L144.21 92.4092C152.401 78.2066 163.286 71.1053 176.863 71.1053C184.162 70.8268 191.29 73.6317 196.838 78.9662C202.162 84.1929 204.824 91.9632 204.824 102.277V289.37H233.791C235.792 289.235 237.794 289.596 239.657 290.427C241.52 291.258 243.197 292.539 244.57 294.179C247.019 297.403 248.365 301.502 248.365 305.74C248.365 309.978 247.019 314.078 244.57 317.302C243.197 318.942 241.52 320.223 239.657 321.054C237.794 321.885 235.792 322.246 233.791 322.11H204.62V371.68C204.74 374.485 204.28 377.283 203.276 379.855C202.271 382.427 200.749 384.703 198.83 386.503C195.083 390.031 190.335 391.937 185.445 391.876C180.501 391.919 175.7 390.019 171.874 386.503ZM165.805 289.37V117.1L70.3229 289.37H165.805Z" fill="#263238"/>
<path d="M329.869 387.506C318.71 382.036 308.828 373.744 300.995 363.275C293.128 352.214 286.985 339.738 282.826 326.375C278.112 311.938 274.798 296.973 272.941 281.739C271.003 265.153 270.07 248.438 270.149 231.71C270.149 121.504 303.658 66.4009 370.676 66.4009C437.694 66.4009 471.122 121.504 470.961 231.71C471.027 248.358 470.125 264.993 468.261 281.509C466.465 296.746 463.181 311.715 458.469 326.145C454.31 339.508 448.167 351.984 440.3 363.045C432.457 373.527 422.58 381.852 411.426 387.38C398.603 393.747 384.694 396.887 370.676 396.579C356.65 396.895 342.729 393.8 329.869 387.506V387.506ZM390.483 355.874C396.091 353.188 401.18 349.304 405.469 344.438C409.812 339.245 413.382 333.301 416.043 326.835C418.979 319.983 421.353 312.845 423.136 305.51C425.013 297.517 426.381 289.385 427.231 281.175C428.237 272.115 428.907 263.815 429.242 256.275C429.577 248.735 429.738 240.546 429.726 231.71C429.726 222.441 429.564 213.883 429.242 206.036C428.919 198.189 428.218 189.771 427.138 180.781C426.211 172.576 424.812 164.447 422.95 156.446C421.188 149.184 418.813 142.127 415.857 135.372C413.176 129.007 409.599 123.169 405.264 118.082C401.001 113.314 395.939 109.541 390.371 106.981C377.643 101.462 363.541 101.462 350.812 106.981C345.285 109.51 340.261 113.248 336.031 117.978C331.728 123.042 328.16 128.834 325.457 135.142C322.475 141.836 320.129 148.865 318.457 156.111C316.64 164.161 315.272 172.331 314.362 180.572C313.282 189.687 312.581 198.175 312.258 206.036C311.936 213.897 311.768 222.455 311.756 231.71C311.756 240.532 311.923 248.755 312.258 256.379C312.593 264.003 313.257 272.366 314.25 281.467C315.109 289.676 316.477 297.808 318.346 305.803C320.103 313.136 322.452 320.273 325.364 327.127C327.998 333.555 331.537 339.464 335.845 344.626C340.102 349.46 345.161 353.31 350.738 355.958C363.478 361.783 377.742 361.783 390.483 355.958V355.874Z" fill="#263238"/>
<path d="M643.457 386.502C641.487 384.737 639.918 382.475 638.876 379.898C637.834 377.322 637.35 374.506 637.462 371.679V322.11H523.606C520.825 322.227 518.054 321.667 515.484 320.469C512.913 319.271 510.604 317.463 508.713 315.169C504.989 310.745 502.946 304.865 503.017 298.778C503.002 293.831 504.298 288.992 506.74 284.875L615.793 92.4086C623.91 78.2061 634.763 71.1048 648.353 71.1048C655.69 70.7945 662.863 73.6013 668.44 78.9657C673.764 84.1923 676.426 91.9626 676.426 102.277V289.37H705.393C707.393 289.235 709.396 289.595 711.259 290.426C713.121 291.257 714.799 292.538 716.171 294.178C718.621 297.403 719.966 301.502 719.966 305.74C719.966 309.978 718.621 314.077 716.171 317.301C714.799 318.941 713.121 320.222 711.259 321.053C709.396 321.884 707.393 322.245 705.393 322.11H676.203V371.679C676.323 374.484 675.863 377.283 674.859 379.855C673.854 382.427 672.332 384.702 670.413 386.502C666.666 390.03 661.918 391.936 657.028 391.875C652.084 391.919 647.283 390.018 643.457 386.502V386.502ZM637.462 289.37V117.099L541.98 289.37H637.462Z" fill="#263238"/>
<path d="M288.764 300.994C288.764 300.994 269.31 331.685 266.537 362.899C263.763 394.112 267.002 414.914 275.342 422.733C283.682 430.552 292.003 427.416 296.639 420.12C301.274 412.824 293.865 387.338 293.865 387.338C293.865 387.338 301.74 362.899 313.784 345.734C325.829 328.57 328.137 325.957 328.137 325.957C328.137 325.957 307.287 299.426 288.764 300.994Z" fill="white"/>
<path d="M288.764 300.994C284.519 308.038 280.754 315.432 277.501 323.113C286.81 327.295 301.237 335.866 310.396 351.045C311.513 349.226 312.667 347.428 313.859 345.734C325.903 328.57 328.212 325.957 328.212 325.957C328.212 325.957 307.287 299.426 288.764 300.994Z" fill="#0690FF"/>
<path opacity="0.5" d="M288.764 300.994C284.519 308.038 280.754 315.432 277.501 323.113C286.81 327.295 301.237 335.866 310.396 351.045C311.513 349.226 312.667 347.428 313.859 345.734C325.903 328.57 328.212 325.957 328.212 325.957C328.212 325.957 307.287 299.426 288.764 300.994Z" fill="white"/>
<path d="M288.764 300.994C288.764 300.994 269.31 331.685 266.537 362.899C263.763 394.112 267.002 414.914 275.342 422.733C283.682 430.552 292.003 427.416 296.639 420.12C301.274 412.824 293.865 387.338 293.865 387.338C293.865 387.338 301.74 362.899 313.784 345.734C325.829 328.57 328.137 325.957 328.137 325.957C328.137 325.957 307.287 299.426 288.764 300.994Z" stroke="#263238" stroke-width="1.1133" stroke-linecap="round" stroke-linejoin="round"/>
<path d="M275.343 422.733C273.068 415.912 271.963 408.67 272.085 401.388" stroke="#263238" stroke-width="1.1133" stroke-linecap="round" stroke-linejoin="round"/>
<path d="M287.834 425.848C287.834 425.848 283.217 417.005 282.751 401.91" stroke="#263238" stroke-width="1.1133" stroke-linecap="round" stroke-linejoin="round"/>
<path d="M294.796 356.647C294.796 351.17 285.488 340.466 272.55 335.741C270.81 340.834 269.374 346.051 268.25 351.358C273.276 352.324 278.158 354.076 282.751 356.564C289.695 360.808 294.796 362.898 294.796 356.647Z" fill="#0690FF" stroke="#263238" stroke-width="1.1133" stroke-linecap="round" stroke-linejoin="round"/>
<path d="M287.629 302.854C284.628 307.992 281.869 313.303 279.363 318.764C283.281 319.928 287.039 321.686 290.533 323.991C304.886 333.336 307.66 334.444 303.043 320.855C300.251 312.325 293.586 306.534 287.629 302.854Z" fill="#0690FF" stroke="#263238" stroke-width="1.1133" stroke-linecap="round" stroke-linejoin="round"/>
<path d="M441.137 285.837C441.137 285.837 463.179 314.228 468.671 345.003C474.162 375.777 472.766 396.83 465.134 405.506C457.501 414.183 448.956 412.008 443.706 405.256C438.457 398.503 443.706 372.349 443.706 372.349C443.706 372.349 433.728 348.87 420.25 333.107C406.772 317.343 404.222 315.023 404.222 315.023C404.222 315.023 422.559 286.318 441.137 285.837Z" fill="white"/>
<path d="M441.137 285.837C422.521 286.318 404.128 315.106 404.128 315.106C404.128 315.106 406.66 317.448 420.157 333.19C422.681 336.176 425.055 339.317 427.268 342.598C434.313 329.236 444.376 318.201 456.44 310.611C452.001 301.862 446.88 293.571 441.137 285.837V285.837Z" fill="#0690FF"/>
<path opacity="0.5" d="M441.137 285.837C422.521 286.318 404.128 315.106 404.128 315.106C404.128 315.106 406.66 317.448 420.157 333.19C422.681 336.176 425.055 339.317 427.268 342.598C434.313 329.236 444.376 318.201 456.44 310.611C452.001 301.862 446.88 293.571 441.137 285.837V285.837Z" fill="white"/>
<path d="M441.137 285.837C441.137 285.837 463.179 314.228 468.671 345.003C474.162 375.777 472.766 396.83 465.134 405.506C457.501 414.183 448.956 412.008 443.706 405.256C438.457 398.503 443.706 372.349 443.706 372.349C443.706 372.349 433.728 348.87 420.25 333.107C406.772 317.343 404.222 315.023 404.222 315.023C404.222 315.023 422.559 286.318 441.137 285.837Z" stroke="#263238" stroke-width="1.1133" stroke-linecap="round" stroke-linejoin="round"/>
<path d="M465.133 405.506C466.802 398.477 467.27 391.156 466.511 383.931" stroke="#263238" stroke-width="1.1133" stroke-linecap="round" stroke-linejoin="round"/>
<path d="M452.958 409.98C452.958 409.98 456.812 400.677 455.956 385.603" stroke="#263238" stroke-width="1.1133" stroke-linecap="round" stroke-linejoin="round"/>
<path d="M440.001 341.888C439.536 336.431 447.857 324.765 460.33 318.723C462.488 323.596 464.353 328.625 465.915 333.776C461.006 335.313 456.308 337.599 451.953 340.571C445.437 345.484 440.56 348.034 440.001 341.888Z" fill="#0690FF" stroke="#263238" stroke-width="1.1133" stroke-linecap="round" stroke-linejoin="round"/>
<path d="M442.422 287.572C445.846 292.317 449.04 297.265 451.991 302.395C448.18 303.98 444.579 306.139 441.286 308.813C427.827 319.727 425.146 321.065 428.572 307.099C430.712 298.381 436.818 291.879 442.422 287.572Z" fill="#0690FF" stroke="#263238" stroke-width="1.1133" stroke-linecap="round" stroke-linejoin="round"/>
<path d="M286.94 274.443C286.94 274.443 281.206 296.165 283.366 305.008C285.525 313.852 295.541 305.824 305.575 315.462C315.609 325.099 324.898 342.494 362.894 345.713C400.889 348.933 423.824 325.915 431.773 313.036C439.722 300.158 438.941 284.875 452.549 284.081C466.157 283.286 454.708 253.494 450.408 248.665C450.408 248.665 476.917 204.406 476.917 193.137C476.917 181.868 451.841 184.272 421.069 194.747C421.069 194.747 398.134 181.053 356.564 189.102C314.995 197.151 302.82 210.845 302.82 210.845C302.82 210.845 251.216 218.078 247.641 225.312C244.067 232.546 254.697 263.174 286.94 274.443Z" fill="white"/>
<path d="M452.493 284.102C466.12 283.286 454.652 253.515 450.352 248.686C450.352 248.686 455.397 240.323 461.075 229.87C445.679 220.838 430.563 215.821 426.542 220.901C417.885 231.814 422.595 252.721 426.542 273.167C430.489 293.614 414.721 302.332 403.7 320.019C392.679 337.706 376.949 318.242 376.949 318.242C371.364 343.895 347.814 327.086 347.814 327.086C329.72 320.814 299.022 300.576 305.314 286.422C311.606 272.268 313.189 259.014 302.168 247.536C291.147 236.058 247.194 226.504 247.194 226.504C244.886 235.222 256.037 263.78 286.958 274.589C286.958 274.589 281.225 296.311 283.384 305.155C285.544 313.998 295.559 305.97 305.593 315.608C315.627 325.246 324.917 342.64 362.912 345.86C400.908 349.079 423.843 326.061 431.792 313.183C439.741 300.304 438.866 284.896 452.493 284.102Z" fill="#0690FF"/>
<path opacity="0.5" d="M452.493 284.102C466.12 283.286 454.652 253.515 450.352 248.686C450.352 248.686 455.397 240.323 461.075 229.87C445.679 220.838 430.563 215.821 426.542 220.901C417.885 231.814 422.595 252.721 426.542 273.167C430.489 293.614 414.721 302.332 403.7 320.019C392.679 337.706 376.949 318.242 376.949 318.242C371.364 343.895 347.814 327.086 347.814 327.086C329.72 320.814 299.022 300.576 305.314 286.422C311.606 272.268 313.189 259.014 302.168 247.536C291.147 236.058 247.194 226.504 247.194 226.504C244.886 235.222 256.037 263.78 286.958 274.589C286.958 274.589 281.225 296.311 283.384 305.155C285.544 313.998 295.559 305.97 305.593 315.608C315.627 325.246 324.917 342.64 362.912 345.86C400.908 349.079 423.843 326.061 431.792 313.183C439.741 300.304 438.866 284.896 452.493 284.102Z" fill="white"/>
<path d="M396.44 288.952C396.98 294.053 386.89 299.551 373.952 301.245C361.014 302.938 350.067 300.178 349.528 294.973C348.988 289.767 359.078 284.394 372.034 282.701C384.991 281.007 395.919 283.871 396.44 288.952Z" fill="#0690FF"/>
<path opacity="0.5" d="M396.44 288.952C396.98 294.053 386.89 299.551 373.952 301.245C361.014 302.938 350.067 300.178 349.528 294.973C348.988 289.767 359.078 284.394 372.034 282.701C384.991 281.007 395.919 283.871 396.44 288.952Z" fill="white"/>
<path d="M286.94 274.443C286.94 274.443 281.206 296.165 283.366 305.008C285.525 313.852 295.541 305.824 305.575 315.462C315.609 325.099 324.898 342.494 362.894 345.713C400.889 348.933 423.824 325.915 431.773 313.036C439.722 300.158 438.941 284.875 452.549 284.081C466.157 283.286 454.708 253.494 450.408 248.665C450.408 248.665 476.917 204.406 476.917 193.137C476.917 181.868 451.841 184.272 421.069 194.747C421.069 194.747 398.134 181.053 356.564 189.102C314.995 197.151 302.82 210.845 302.82 210.845C302.82 210.845 251.216 218.078 247.641 225.312C244.067 232.546 254.697 263.174 286.94 274.443Z" stroke="#263238" stroke-width="1.1133" stroke-miterlimit="10"/>
<path d="M435.161 210.05C416.545 224.099 423.117 238.149 431.438 245.947C436.52 250.714 444.711 250.128 450.315 248.79C450.315 248.79 476.824 204.531 476.824 193.262C476.843 193.158 453.684 195.896 435.161 210.05Z" fill="#0690FF" stroke="#263238" stroke-width="1.1133" stroke-miterlimit="10"/>
<path d="M247.176 226.358C244.868 235.076 256.019 263.634 286.94 274.443C286.94 274.443 310.546 271.85 302.671 250.526C295.318 230.623 258.141 225.668 247.176 226.358Z" fill="#0690FF" stroke="#263238" stroke-width="1.1133" stroke-miterlimit="10"/>
<path d="M356.453 189.144C354.014 189.625 351.669 190.127 349.416 190.628C353.139 211.744 359.264 246.909 364.737 246.909C370.21 246.909 374.399 208.357 376.186 186.761C369.569 187.074 362.978 187.87 356.453 189.144V189.144Z" fill="#0690FF" stroke="#263238" stroke-width="1.1133" stroke-miterlimit="10"/>
<path d="M335.1 240.637C340.796 236.874 339.94 208.587 339.028 193.242C333.148 194.882 327.361 196.914 321.696 199.326C323.763 213.688 329.012 244.651 335.1 240.637Z" fill="#0690FF" stroke="#263238" stroke-width="1.1133" stroke-miterlimit="10"/>
<path d="M390.222 227.633C396.049 229.932 399.326 206.412 401.169 188.307C395.284 187.23 389.334 186.664 383.372 186.614C383.185 201.478 383.911 225.145 390.222 227.633Z" fill="#0690FF" stroke="#263238" stroke-width="1.1133" stroke-miterlimit="10"/>
<path d="M382.422 309.043C376.985 307.438 371.208 308.239 366.282 311.28C366.066 311.42 365.882 311.615 365.745 311.849C365.608 312.083 365.522 312.35 365.493 312.628C365.464 312.907 365.493 313.189 365.578 313.452C365.664 313.715 365.803 313.952 365.984 314.144L375.869 324.598C376.054 324.793 376.278 324.935 376.523 325.014C376.767 325.092 377.024 325.105 377.273 325.05C377.522 324.994 377.756 324.873 377.956 324.697C378.155 324.52 378.314 324.293 378.42 324.033L383.483 311.489C383.574 311.252 383.618 310.996 383.612 310.737C383.606 310.479 383.552 310.226 383.451 309.994C383.35 309.762 383.206 309.557 383.029 309.393C382.851 309.229 382.644 309.109 382.422 309.043V309.043Z" fill="#0690FF" stroke="#263238" stroke-width="1.1133" stroke-linecap="round" stroke-linejoin="round"/>
<path d="M358.928 291.586C360.287 295.621 359.747 299.593 357.718 300.451C355.689 301.308 352.934 298.757 351.556 294.743C350.179 290.729 350.737 286.736 352.766 285.879C354.796 285.022 357.551 287.572 358.928 291.586Z" fill="#263238"/>
<path d="M385.884 288.722C385.177 292.903 386.331 296.771 388.472 297.21C390.613 297.649 392.921 294.597 393.629 290.353C394.336 286.109 393.182 282.325 391.041 281.865C388.9 281.405 386.592 284.499 385.884 288.722Z" fill="#263238"/>
<path d="M378.419 324.012C378.419 324.012 365.202 344.166 353.157 323.887" stroke="#263238" stroke-width="1.1133" stroke-linecap="round" stroke-linejoin="round"/>
<path d="M375.869 324.577C375.869 324.577 384.656 334.801 393.927 329.072C403.198 323.344 397.65 314.438 397.65 314.438" stroke="#263238" stroke-width="1.1133" stroke-linecap="round" stroke-linejoin="round"/>
<path d="M335.565 275.488C335.565 275.488 338.804 262.484 354.088 265.599" stroke="#263238" stroke-width="3.33991" stroke-linecap="round" stroke-linejoin="round"/>
<path d="M381.882 263.529C381.882 263.529 393.461 255.731 404.109 268.212" stroke="#263238" stroke-width="3.33991" stroke-linecap="round" stroke-linejoin="round"/>
<path d="M326.76 310.36L337.874 313.475" stroke="#263238" stroke-width="1.1133" stroke-miterlimit="10" stroke-linecap="round"/>
<path d="M336.478 318.159L326.76 320.228" stroke="#263238" stroke-width="1.1133" stroke-miterlimit="10" stroke-linecap="round"/>
<path d="M338.339 323.887L331.396 328.047" stroke="#263238" stroke-width="1.1133" stroke-miterlimit="10" stroke-linecap="round"/>
<path d="M408.745 304.632L418.481 302.019" stroke="#263238" stroke-width="1.1133" stroke-miterlimit="10" stroke-linecap="round"/>
<path d="M410.606 309.838H417.085" stroke="#263238" stroke-width="1.1133" stroke-miterlimit="10" stroke-linecap="round"/>
<path d="M411.984 315.043L420.79 317.636" stroke="#263238" stroke-width="1.1133" stroke-miterlimit="10" stroke-linecap="round"/>
</svg>
