<svg width="800" height="800" viewBox="0 0 800 800" fill="none" xmlns="http://www.w3.org/2000/svg">
<path d="M800 709.112H0V709.615H800V709.112Z" fill="#EBEBEB"/>
<path d="M178.656 725.998H125.664V726.501H178.656V725.998Z" fill="#EBEBEB"/>
<path d="M261.6 740.508H213.328V741.011H261.6V740.508Z" fill="#EBEBEB"/>
<path d="M152.16 744.675H90.96V745.178H152.16V744.675Z" fill="#EBEBEB"/>
<path d="M719.84 743.588H694.4V744.091H719.84V743.588Z" fill="#EBEBEB"/>
<path d="M689.264 743.588H626.352V744.091H689.264V743.588Z" fill="#EBEBEB"/>
<path d="M448.528 725.736H400V726.239H448.528V725.736Z" fill="#EBEBEB"/>
<path d="M570.832 725.736H455.472V726.239H570.832V725.736Z" fill="#EBEBEB"/>
<path d="M379.2 619.351H70.256C67.8357 619.345 65.5161 618.132 63.8062 615.978C62.0963 613.823 61.136 610.903 61.136 607.859V61.5846C61.1571 58.5577 62.1267 55.6635 63.8343 53.5307C65.5419 51.3978 67.8495 50.1985 70.256 50.1934H379.2C381.623 50.1934 383.947 51.4041 385.66 53.5592C387.373 55.7144 388.336 58.6374 388.336 61.6852V607.859C388.336 610.907 387.373 613.83 385.66 615.985C383.947 618.14 381.623 619.351 379.2 619.351V619.351ZM70.256 50.5959C67.9418 50.6012 65.7239 51.7613 64.089 53.8215C62.4542 55.8817 61.536 58.6737 61.536 61.5846V607.859C61.536 610.77 62.4542 613.562 64.089 615.622C65.7239 617.682 67.9418 618.842 70.256 618.847H379.2C381.516 618.842 383.735 617.683 385.373 615.623C387.01 613.563 387.932 610.771 387.936 607.859V61.5846C387.932 58.6718 387.01 55.8799 385.373 53.8203C383.735 51.7606 381.516 50.6012 379.2 50.5959H70.256Z" fill="#EBEBEB"/>
<path d="M725.296 619.351H416.336C413.914 619.345 411.593 618.133 409.881 615.979C408.168 613.825 407.204 610.905 407.2 607.859V61.5846C407.225 58.5559 408.198 55.6617 409.909 53.5294C411.619 51.3971 413.928 50.1985 416.336 50.1934H725.296C727.7 50.2038 730.003 51.4054 731.707 53.5377C733.411 55.67 734.379 58.5612 734.4 61.5846V607.859C734.4 610.9 733.442 613.816 731.735 615.97C730.029 618.124 727.713 619.34 725.296 619.351V619.351ZM416.336 50.5959C414.02 50.6012 411.801 51.7606 410.163 53.8203C408.526 55.8799 407.604 58.6718 407.6 61.5846V607.859C407.604 610.771 408.526 613.563 410.163 615.623C411.801 617.683 414.02 618.842 416.336 618.847H725.296C727.612 618.842 729.831 617.683 731.469 615.623C733.106 613.563 734.028 610.771 734.032 607.859V61.5846C734.028 58.6718 733.106 55.8799 731.469 53.8203C729.831 51.7606 727.612 50.6012 725.296 50.5959H416.336Z" fill="#EBEBEB"/>
<path d="M686.845 414.69L662.328 383.852L436.427 668.004L460.944 698.842L686.845 414.69Z" fill="#EBEBEB"/>
<path d="M579.088 550.219L554.576 519.366L521.152 561.409L543.632 606.511L579.088 550.219Z" fill="#E0E0E0"/>
<path d="M460.94 698.841L469.108 709.116L695.009 424.964L686.84 414.689L460.94 698.841Z" fill="#E0E0E0"/>
<path d="M460.948 394.114L436.431 424.953L662.332 709.105L686.849 678.266L460.948 394.114Z" fill="#EBEBEB"/>
<path d="M686.848 678.271L695.016 667.996L469.115 383.844L460.947 394.119L686.848 678.271Z" fill="#E0E0E0"/>
<path d="M281.923 479.977L262.837 455.969L87.0219 677.12L106.108 701.128L281.923 479.977Z" fill="#EBEBEB"/>
<path d="M198.048 585.439L178.96 561.449L152.96 594.174L170.448 629.253L198.048 585.439Z" fill="#E0E0E0"/>
<path d="M106.094 701.121L112.453 709.119L288.268 487.968L281.91 479.97L106.094 701.121Z" fill="#E0E0E0"/>
<path d="M106.117 463.965L87.0305 487.973L262.846 709.124L281.932 685.116L106.117 463.965Z" fill="#EBEBEB"/>
<path d="M281.901 685.101L288.259 677.104L112.444 455.953L106.086 463.95L281.901 685.101Z" fill="#E0E0E0"/>
<path d="M510.192 493.183H482.016V709.092H510.192V493.183Z" fill="#F5F5F5"/>
<path d="M510.192 582.903H482.016V608.805L510.192 601.157V582.903Z" fill="#EBEBEB"/>
<path d="M510.176 709.112H519.568V493.203H510.176V709.112Z" fill="#EBEBEB"/>
<path d="M215.04 493.183H186.864V709.092H215.04V493.183Z" fill="#F5F5F5"/>
<path d="M215.024 582.903H186.864V608.805L215.024 601.157V582.903Z" fill="#EBEBEB"/>
<path d="M215.024 709.112H224.416L224.416 493.203H215.024L215.024 709.112Z" fill="#EBEBEB"/>
<path d="M524.976 524.84H165.376V591.295H524.976V524.84Z" fill="#F5F5F5"/>
<path d="M524.976 591.275H530.256V524.82H524.976V591.275Z" fill="#EBEBEB"/>
<path d="M388.368 457.077H318.064L268.352 519.608V608.041L318.064 670.571H388.368L438.08 608.041V519.608L388.368 457.077Z" fill="#FAFAFA"/>
<path d="M385.152 466.838H321.28L276.112 523.653V603.995L321.28 660.81H385.152L430.32 603.995V523.653L385.152 466.838Z" fill="#E0E0E0"/>
<path d="M291.504 573.101L300.496 572.095C300.57 574.186 300.973 576.238 301.68 578.133C302.051 579.131 302.641 579.974 303.381 580.563C304.121 581.152 304.98 581.461 305.856 581.454C306.458 581.514 307.063 581.392 307.62 581.098C308.176 580.804 308.669 580.346 309.056 579.763C309.8 578.635 310.193 577.204 310.16 575.738C310.168 574.348 309.795 572.998 309.104 571.914C307.756 570.339 306.1 569.241 304.304 568.734C300.9 567.649 297.82 565.342 295.44 562.093C293.579 559.074 292.632 555.322 292.768 551.506C292.746 548.73 293.211 545.982 294.128 543.456C295 541.018 296.432 538.964 298.24 537.559C300.538 535.972 303.143 535.226 305.76 535.406C307.383 535.266 309.012 535.539 310.549 536.21C312.086 536.881 313.499 537.935 314.704 539.31C316.752 541.907 317.904 546.052 318.368 551.728L309.456 552.674C309.372 550.736 308.856 548.867 307.968 547.28C307.571 546.714 307.076 546.27 306.521 545.98C305.967 545.691 305.367 545.564 304.768 545.61C304.307 545.571 303.844 545.663 303.415 545.879C302.986 546.095 302.601 546.429 302.288 546.857C301.727 547.71 301.432 548.79 301.456 549.896C301.448 550.761 301.693 551.599 302.144 552.251C303.042 553.282 304.15 553.979 305.344 554.264C308.484 555.288 311.48 556.918 314.224 559.094C315.943 560.615 317.294 562.705 318.128 565.132C318.96 567.685 319.373 570.423 319.344 573.182C319.382 576.524 318.836 579.835 317.744 582.883C316.79 585.655 315.203 588.008 313.184 589.645C310.953 591.27 308.4 592.065 305.824 591.939C300.629 591.939 297.029 590.141 295.024 586.545C292.876 582.565 291.656 577.908 291.504 573.101V573.101Z" fill="white"/>
<path d="M321.872 536.433H350.672V549.977H341.072V591.215H331.616V549.977H322.016L321.872 536.433Z" fill="white"/>
<path d="M352.224 563.864C352.224 554.928 353.616 547.964 356.4 542.973C357.747 540.669 359.504 538.793 361.531 537.496C363.558 536.199 365.798 535.518 368.072 535.506C370.346 535.494 372.59 536.153 374.626 537.428C376.661 538.704 378.43 540.562 379.792 542.853C382.597 547.75 384 554.599 384 563.401C384.133 568.746 383.521 574.08 382.192 579.159C381.194 582.894 379.388 586.205 376.976 588.719C374.545 591.064 371.542 592.273 368.48 592.141C365.452 592.293 362.461 591.259 359.92 589.182C357.405 586.805 355.493 583.561 354.416 579.844C352.865 574.747 352.121 569.319 352.224 563.864ZM361.68 563.864C361.68 569.405 362.256 573.377 363.408 575.778C363.856 576.858 364.53 577.763 365.358 578.395C366.186 579.026 367.136 579.36 368.104 579.36C369.072 579.36 370.022 579.026 370.85 578.395C371.678 577.763 372.352 576.858 372.8 575.778C373.92 573.403 374.4 569.157 374.4 563.039C374.613 559.144 374.018 555.246 372.672 551.728C372.209 550.638 371.516 549.729 370.669 549.1C369.822 548.472 368.855 548.149 367.872 548.166C366.916 548.18 365.981 548.526 365.171 549.165C364.361 549.804 363.707 550.712 363.28 551.788C362.213 554.311 361.68 558.363 361.68 563.944V563.864Z" fill="white"/>
<path d="M388.976 536.433H404.688C406.159 536.31 407.631 536.646 408.974 537.411C410.317 538.177 411.488 539.348 412.384 540.82C414.257 544.523 415.148 548.878 414.928 553.258C415.144 557.844 414.166 562.394 412.144 566.219C411.137 567.809 409.837 569.065 408.356 569.879C406.876 570.693 405.259 571.039 403.648 570.888H398.4V591.215H388.912L388.976 536.433ZM398.4 559.799H400.72C401.421 559.896 402.131 559.792 402.796 559.496C403.46 559.2 404.064 558.718 404.56 558.088C405.326 556.85 405.717 555.309 405.664 553.741C405.742 552.189 405.44 550.644 404.8 549.314C404.369 548.658 403.812 548.149 403.183 547.836C402.554 547.523 401.872 547.415 401.2 547.522H398.4V559.799Z" fill="white"/>
<path d="M658.16 146.294C656.489 146.304 654.825 146.554 653.2 147.039C651.088 141.001 646.4 137.238 640.08 137.238C635.241 137.387 630.542 139.31 626.56 142.772V142.772C623.872 131.421 615.824 123.834 604.592 123.834C588.592 123.834 571.872 139.21 565.824 158.853C564.345 158.417 562.831 158.201 561.312 158.209H559.808C546.032 159.376 547.008 185.54 560.88 185.54H659.2C660.902 185.547 662.581 185.049 664.102 184.088C665.622 183.126 666.941 181.728 667.952 180.005C669.649 177.107 670.942 173.868 671.776 170.425C674.816 157.102 668.8 146.294 658.16 146.294Z" fill="#F0F0F0"/>
<path d="M274.176 30.3296C272.032 12.4579 260.704 0 244.144 0C230.576 0 216.592 8.3522 206.176 21.2126C203.138 17.8989 199.219 16.1457 195.2 16.3019C183.712 16.3019 171.664 28.0151 168.272 42.4654C167.769 44.5982 167.484 46.803 167.424 49.0264V49.0264L167.184 49.2277C157.68 57.278 162.384 76.1761 173.968 76.1761H275.2C277.131 76.1958 279.036 75.6076 280.741 74.4653C282.445 73.3229 283.896 71.6625 284.96 69.6352C286.542 66.5994 287.765 63.2912 288.592 59.8138C292.128 44.4377 285.776 31.7786 274.176 30.3296Z" fill="#F0F0F0"/>
<path d="M395.008 229.916C392.064 205.343 376.496 188.216 353.728 188.216C335.056 188.216 315.84 199.708 301.536 217.378C297.371 212.81 291.987 210.394 286.464 210.616C270.688 210.616 254.096 226.716 249.44 246.581C248.748 249.511 248.355 252.541 248.272 255.597L247.952 255.859C234.848 267.069 241.344 292.91 257.184 292.91H390.4C395.802 292.958 401.072 290.821 405.434 286.813C409.796 282.804 413.018 277.138 414.624 270.651V270.41C419.712 249.298 410.96 231.889 395.008 229.916Z" fill="#F5F5F5"/>
<path d="M400 800C571.332 800 710.224 789.8 710.224 777.218C710.224 764.636 571.332 754.436 400 754.436C228.668 754.436 89.776 764.636 89.776 777.218C89.776 789.8 228.668 800 400 800Z" fill="#F5F5F5"/>
<path d="M205.984 198.963H125.664V153.358L205.984 33.2676H244.384V156.035H264.304V199.064H244.416V236.377H206.016L205.984 198.963ZM205.984 155.934V93.1217L163.552 155.934H205.984Z" fill="#263238"/>
<path d="M583.856 33.2676V236.276H539.2V103.245C532.685 109.609 525.723 115.214 518.4 119.99C510.221 124.953 501.727 129.052 493.008 132.246V86.782C508.016 80.6772 519.669 73.3648 527.968 64.8449C536.276 56.3049 542.939 45.5091 547.456 33.2676H583.856Z" fill="#263238"/>
<path d="M498.912 288.061C498.208 289.651 497.664 290.798 497.04 292.086C496.416 293.374 495.792 294.582 495.168 295.83C493.904 298.285 492.56 300.66 491.2 303.035C488.456 307.797 485.514 312.372 482.384 316.74C479.198 321.223 475.771 325.426 472.128 329.319C468.342 333.446 464.23 337.074 459.856 340.147C458.479 341.157 457.04 342.025 455.552 342.743C453.996 343.489 452.389 344.055 450.752 344.433C447.831 345.069 444.859 345.245 441.904 344.957C436.79 344.396 431.765 342.932 426.976 340.61C422.555 338.489 418.275 335.932 414.176 332.962C410.147 330.069 406.296 326.799 402.656 323.181C401.626 322.129 400.926 320.651 400.681 319.01C400.437 317.37 400.663 315.674 401.32 314.224C401.977 312.774 403.022 311.664 404.269 311.093C405.516 310.522 406.883 310.526 408.128 311.105L408.416 311.246C415.949 315.035 423.727 318.004 431.664 320.122C435.161 321.039 438.735 321.41 442.304 321.228C443.697 321.153 445.076 320.834 446.4 320.283C446.894 320.08 447.371 319.817 447.824 319.498C448.272 319.176 448.352 319.075 449.264 318.29C455.388 312.628 460.882 305.961 465.6 298.466C468.112 294.602 470.56 290.597 472.88 286.391C474.064 284.378 475.184 282.225 476.32 280.132L477.92 276.992L479.424 274.033L479.68 273.53C481.264 270.484 483.724 268.327 486.545 267.511C489.365 266.696 492.327 267.286 494.81 269.157C497.292 271.028 499.103 274.035 499.861 277.548C500.62 281.061 500.268 284.807 498.88 288.001L498.912 288.061Z" fill="#FF8B7B"/>
<path d="M410.784 312.755L398.512 302.531L393.312 323.06C395.771 324.69 398.534 325.457 401.31 325.28C404.086 325.103 406.773 323.988 409.088 322.053L410.784 312.755Z" fill="#FF8B7B"/>
<path d="M387.2 305.611L386.24 312.152C386.066 313.312 386.157 314.51 386.502 315.607C386.848 316.704 387.434 317.656 388.192 318.351L393.264 323.06L398.464 302.532L393.536 300.721C392.864 300.472 392.158 300.404 391.463 300.52C390.769 300.636 390.101 300.934 389.504 301.395C388.907 301.856 388.393 302.469 387.996 303.196C387.599 303.922 387.328 304.745 387.2 305.611Z" fill="#FF8B7B"/>
<path d="M499.296 255.357C486.8 257.832 474.16 276.288 466.56 293.495C471.551 304.44 479.113 313.172 488.208 318.492C488.208 318.492 503.024 300.861 509.008 287.82C514.992 274.778 511.056 253.002 499.296 255.357Z" fill="#0690FF"/>
<path opacity="0.2" d="M499.296 255.357C486.8 257.832 474.16 276.288 466.56 293.495C471.551 304.44 479.113 313.172 488.208 318.492C488.208 318.492 503.024 300.861 509.008 287.82C514.992 274.778 511.056 253.002 499.296 255.357Z" fill="black"/>
<path d="M467.04 289.551C465.883 291.2 464.977 293.103 464.368 295.166C467.488 301.204 474.896 317.304 488.72 320.726C490.064 319.781 491.092 318.259 491.616 316.439C491.616 316.439 475.712 306.577 467.04 289.551Z" fill="#263238"/>
<path d="M549.648 254.813C534.543 251.633 519.162 251.077 503.936 253.163C492.576 254.994 484.096 268.136 484.176 282.526C484.233 297.54 485.303 312.521 487.376 327.306C483.2 354.979 481.696 392.594 486.096 400.886L564.8 402.275C568.176 390.441 563.936 339.221 568.432 285.747C569.042 278.546 567.434 271.326 563.94 265.572C560.446 259.818 555.331 255.967 549.648 254.813Z" fill="#0690FF"/>
<path opacity="0.2" d="M520 401.006C515.504 356.468 520 281.983 520 281.218L521.6 281.379C521.6 282.123 517.136 356.408 521.6 400.745L520 401.006Z" fill="black"/>
<path d="M511.44 254.551C514.144 253.283 513.136 251.392 513.136 251.392C513.136 251.392 500.848 251.392 492.336 254.27C491.04 256 492.432 258.295 492.432 258.295C492.432 258.295 503.392 258.335 511.44 254.551Z" fill="#263238"/>
<path opacity="0.2" d="M516.464 251.452C516.464 251.452 511.392 263.246 518.176 273.973C512.8 273.973 509.328 285.505 509.328 285.505C509.328 285.505 498.832 267.15 512.256 252.479C513.008 251.009 516.464 251.452 516.464 251.452Z" fill="black"/>
<path d="M511.04 257.168C509.728 264.373 521.264 277.958 521.264 277.958C521.264 277.958 541.664 265.56 542.96 258.456L511.04 257.168Z" fill="white"/>
<path opacity="0.2" d="M557.088 299.332C554.912 304.605 557.808 327.508 566.208 337.189C566.304 327.73 566.528 317.687 567.008 307.362L557.088 299.332Z" fill="black"/>
<path d="M538.704 215.729L517.648 233.118C520.144 240.806 521.312 248.816 514.112 252.519C513.188 252.987 512.395 253.791 511.838 254.83C511.28 255.868 510.981 257.093 510.981 258.346C510.981 259.599 511.28 260.824 511.838 261.862C512.395 262.9 513.188 263.705 514.112 264.172C516.233 265.143 518.452 265.732 520.704 265.923C527.472 266.749 534.295 265.363 540.512 261.898C541.167 261.487 541.743 260.9 542.199 260.181C542.656 259.461 542.982 258.625 543.156 257.73C543.329 256.836 543.346 255.905 543.204 255.001C543.063 254.098 542.766 253.244 542.336 252.499C536.816 242.678 537.488 225.611 538.704 215.729Z" fill="#FF8B7B"/>
<path opacity="0.2" d="M530.128 222.813L517.664 233.098C518.364 235.201 518.9 237.385 519.264 239.618C524.24 239.256 530.736 234.305 530.864 229.133C530.988 226.984 530.736 224.827 530.128 222.813V222.813Z" fill="black"/>
<path d="M515.328 182.562C520.688 182.421 522.144 192.102 520.128 195.382C524.192 196.489 526.16 202.467 524.928 205.445C523.696 208.424 518.992 211.785 514.8 210.457C507.616 208.202 506.384 200.696 508.4 197.274C504.56 193.289 506.512 181.012 515.328 182.562Z" fill="#263238"/>
<path opacity="0.2" d="M515.328 182.562C520.688 182.421 522.144 192.102 520.128 195.382C524.192 196.489 526.16 202.467 524.928 205.445C523.696 208.424 518.992 211.785 514.8 210.457C507.616 208.202 506.384 200.696 508.4 197.274C504.56 193.289 506.512 181.012 515.328 182.562Z" fill="white"/>
<path d="M545.6 198.521C544 214.401 543.696 223.799 536.864 231.407C526.576 242.818 511.264 234.043 509.088 217.822C507.104 203.231 510.064 179.704 522.816 174.511C525.641 173.38 528.648 173.165 531.557 173.887C534.466 174.608 537.183 176.242 539.456 178.637C541.728 181.032 543.483 184.111 544.558 187.587C545.632 191.063 545.99 194.824 545.6 198.521V198.521Z" fill="#FF8B7B"/>
<path d="M544.08 210.657C538.72 210.657 537.536 200.836 539.584 197.656C535.552 196.347 533.76 190.29 535.008 187.311C536.256 184.332 541.104 181.273 545.264 182.742C552.384 185.319 553.424 192.805 551.36 196.207C555.2 200.433 552.848 212.549 544.08 210.657Z" fill="#263238"/>
<path opacity="0.2" d="M544.08 210.657C538.72 210.657 537.536 200.836 539.584 197.656C535.552 196.347 533.76 190.29 535.008 187.311C536.256 184.332 541.104 181.273 545.264 182.742C552.384 185.319 553.424 192.805 551.36 196.207C555.2 200.433 552.848 212.549 544.08 210.657Z" fill="white"/>
<path opacity="0.2" d="M531.2 201.137C531.844 200.917 532.516 200.859 533.178 200.966C533.839 201.073 534.478 201.343 535.056 201.761C533.751 201.866 532.442 201.654 531.2 201.137Z" fill="black"/>
<path opacity="0.2" d="M531.2 202.225C531.81 202.182 532.419 202.307 532.986 202.593C533.552 202.878 534.063 203.316 534.48 203.875C533.307 203.621 532.189 203.059 531.2 202.225V202.225Z" fill="black"/>
<path opacity="0.2" d="M511.152 199.91C511.005 199.8 510.842 199.73 510.672 199.702C510.503 199.674 510.33 199.69 510.166 199.748C510.001 199.806 509.848 199.906 509.715 200.041C509.582 200.176 509.472 200.344 509.392 200.534C510.021 200.626 510.654 200.402 511.152 199.91Z" fill="black"/>
<path opacity="0.2" d="M511.168 201.138C511.168 201.138 510.192 200.957 509.68 202.788C510.292 202.43 510.809 201.857 511.168 201.138Z" fill="black"/>
<path d="M549.408 214.702C547.94 218.024 545.528 220.526 542.656 221.706C539.008 223.034 537.552 218.446 538.864 213.656C540.064 209.369 543.376 203.492 546.864 204.277C550.352 205.062 551.328 210.456 549.408 214.702Z" fill="#FF8B7B"/>
<path d="M528.64 201.137C528.64 202.425 527.984 203.432 527.296 203.371C526.608 203.311 526.128 202.204 526.208 200.896C526.288 199.588 526.864 198.601 527.552 198.662C528.24 198.722 528.72 199.869 528.64 201.137Z" fill="#263238"/>
<path d="M523.52 224.786C522.208 225.108 521.008 224.464 520.848 223.377C520.688 222.29 521.648 221.163 522.96 220.841C524.272 220.519 525.472 221.163 525.632 222.25C525.792 223.337 524.8 224.484 523.52 224.786Z" fill="#263238"/>
<path d="M514.64 199.75C514.64 201.038 513.968 202.044 513.296 201.984C512.624 201.923 512.112 200.816 512.192 199.508C512.272 198.2 512.864 197.214 513.536 197.274C514.208 197.334 514.704 198.441 514.64 199.75Z" fill="#263238"/>
<path d="M517.824 212.71C510.336 213.354 508.896 217.942 510.208 219.955C511.52 221.968 514.72 219.955 514.72 219.955C514.72 219.955 520.784 221.585 522.56 219.15C525.424 220.679 529.792 217.822 528.56 215.648C527.328 213.474 524.24 212.146 517.824 212.71Z" fill="#263238"/>
<path opacity="0.2" d="M517.824 212.71C510.336 213.354 508.896 217.942 510.208 219.955C511.52 221.968 514.72 219.955 514.72 219.955C514.72 219.955 520.784 221.585 522.56 219.15C525.424 220.679 529.792 217.822 528.56 215.648C527.328 213.474 524.24 212.146 517.824 212.71Z" fill="white"/>
<path d="M518.048 201.138C516.609 204.991 514.751 208.574 512.528 211.784C513.199 212.483 513.983 212.991 514.826 213.272C515.668 213.554 516.549 213.602 517.408 213.414L518.048 201.138Z" fill="#FF5652"/>
<path d="M530.896 194.376C530.998 194.36 531.095 194.319 531.184 194.255C531.252 194.2 531.31 194.129 531.356 194.045C531.401 193.962 531.433 193.867 531.45 193.768C531.466 193.669 531.466 193.566 531.451 193.467C531.436 193.367 531.405 193.273 531.36 193.188C530.849 192.147 530.146 191.275 529.311 190.648C528.475 190.021 527.532 189.656 526.56 189.586C526.399 189.586 526.244 189.667 526.13 189.81C526.016 189.953 525.952 190.148 525.952 190.351C525.952 190.554 526.016 190.748 526.13 190.891C526.244 191.035 526.399 191.115 526.56 191.115V191.115C527.325 191.185 528.066 191.485 528.72 191.989C529.375 192.494 529.923 193.188 530.32 194.014C530.38 194.136 530.465 194.234 530.567 194.299C530.669 194.363 530.783 194.389 530.896 194.376V194.376Z" fill="#263238"/>
<path d="M510.048 192.866C510.149 192.864 510.248 192.831 510.337 192.772C510.426 192.712 510.502 192.627 510.56 192.524C510.97 191.718 511.525 191.045 512.182 190.563C512.838 190.08 513.577 189.8 514.336 189.746C514.497 189.746 514.652 189.666 514.766 189.522C514.88 189.379 514.944 189.184 514.944 188.982C514.944 188.779 514.88 188.584 514.766 188.441C514.652 188.297 514.497 188.217 514.336 188.217C513.374 188.265 512.435 188.605 511.599 189.208C510.763 189.811 510.056 190.658 509.536 191.678C509.492 191.761 509.461 191.854 509.446 191.952C509.431 192.05 509.431 192.151 509.448 192.249C509.464 192.346 509.496 192.439 509.542 192.521C509.587 192.602 509.645 192.672 509.712 192.725C509.808 192.819 509.927 192.869 510.048 192.866V192.866Z" fill="#263238"/>
<path d="M530.704 565.012C534.288 492.399 533.488 417.893 527.264 401.672L486.064 400.887C486.064 400.887 491.2 522.285 492.8 570.648C494.48 620.962 498.064 751.78 498.064 751.78L521.904 752.142C521.904 752.142 535.888 621.184 530.704 565.012Z" fill="#263238"/>
<path opacity="0.2" d="M532.48 454.019C518.416 473.339 524.992 526.834 531.12 556.298C532.8 519.447 533.248 482.758 532.48 454.019Z" fill="black"/>
<path d="M521.6 755.925L500.64 755.583C499.313 755.498 498.003 755.988 496.928 756.971C490.848 763.009 486.224 763.19 479.328 764.74C471.056 766.612 475.152 777.077 481.248 777.198C491.328 777.399 490.48 776.936 499.088 777.097L505.04 777.198L507.728 773.756L510.112 777.198H521.12C521.406 777.205 521.69 777.137 521.953 776.996C522.216 776.855 522.452 776.645 522.646 776.38C522.84 776.116 522.986 775.802 523.076 775.461C523.166 775.12 523.198 774.758 523.168 774.4L521.6 755.925Z" fill="#263238"/>
<path d="M523.2 758.622C522.832 758.622 495.696 757.535 495.696 757.535L494.592 745.278L524.688 746.124L523.2 758.622Z" fill="#0690FF"/>
<path d="M579.088 565.012C574.672 492.398 572.8 418.496 564.8 402.275L515.12 401.47C515.12 401.47 534.88 522.224 541.824 570.647C549.04 620.962 568.464 751.779 568.464 751.779L592.352 752.141C592.352 752.141 590.4 621.183 579.088 565.012Z" fill="#263238"/>
<path d="M593.488 755.925L572.512 755.583C571.19 755.501 569.886 755.991 568.816 756.972C562.736 763.009 565.52 763.191 558.624 764.74C550.352 766.612 554.432 777.077 560.528 777.198C570.608 777.399 569.776 776.937 578.368 777.098L587.712 777.198L588.944 773.757L590.544 777.198H593.008C593.29 777.197 593.568 777.122 593.826 776.977C594.083 776.833 594.313 776.622 594.502 776.358C594.69 776.094 594.833 775.784 594.92 775.447C595.007 775.11 595.037 774.753 595.008 774.401L593.488 755.925Z" fill="#263238"/>
<path d="M595.072 758.622C594.688 758.622 567.44 757.535 567.44 757.535L564.8 745.198L594.992 746.044L595.072 758.622Z" fill="#0690FF"/>
<path d="M517.296 250.023C517.296 250.023 511.392 263.246 518.176 273.973C512.8 273.973 509.28 281.298 509.28 281.298C509.28 281.298 502.128 263.185 512.704 251.11C513.44 249.741 517.296 250.023 517.296 250.023Z" fill="#0690FF"/>
<path d="M566.928 407.79C538.816 409.259 506.576 409.702 486.416 407.79C486.306 407.784 486.198 407.747 486.101 407.681C486.003 407.614 485.92 407.521 485.856 407.407C484.534 404.59 483.926 401.332 484.112 398.069C484.128 397.829 484.217 397.605 484.36 397.444C484.502 397.284 484.688 397.197 484.88 397.203C511.488 398.109 537.936 398.069 565.744 397.203C565.897 397.2 566.047 397.253 566.175 397.357C566.303 397.461 566.404 397.611 566.464 397.787C567.394 400.684 567.798 403.806 567.648 406.924C567.636 407.156 567.555 407.373 567.422 407.533C567.289 407.694 567.112 407.785 566.928 407.79Z" fill="#263238"/>
<path opacity="0.2" d="M566.928 407.79C538.816 409.259 506.576 409.702 486.416 407.79C486.306 407.784 486.198 407.747 486.101 407.681C486.003 407.614 485.92 407.521 485.856 407.407C484.534 404.59 483.926 401.332 484.112 398.069C484.128 397.829 484.217 397.605 484.36 397.444C484.502 397.284 484.688 397.197 484.88 397.203C511.488 398.109 537.936 398.069 565.744 397.203C565.897 397.2 566.047 397.253 566.175 397.357C566.303 397.461 566.404 397.611 566.464 397.787C567.394 400.684 567.798 403.806 567.648 406.924C567.636 407.156 567.555 407.373 567.422 407.533C567.289 407.694 567.112 407.785 566.928 407.79Z" fill="black"/>
<path d="M512 396.64C511.667 401.09 511.954 405.578 512.848 409.903C518.944 411.091 531.456 410.205 531.456 410.205C531.637 405.745 531.509 401.274 531.072 396.842C521.472 396.359 512 396.64 512 396.64Z" fill="white"/>
<path d="M568.208 275.04L569.12 276.066L569.84 276.911L571.2 278.562C572.08 279.648 572.88 280.735 573.696 281.842C575.296 284.036 576.816 286.31 578.256 288.604C581.133 293.148 583.804 297.891 586.256 302.813C591.033 312.536 595.067 322.805 598.304 333.485C598.736 334.914 599.072 335.779 599.68 338.214C600.162 340.185 600.504 342.206 600.704 344.252C600.998 347.835 600.961 351.448 600.592 355.019C599.904 361.173 598.614 367.196 596.752 372.952C595.049 378.294 593.049 383.479 590.768 388.468C588.533 393.372 586.037 398.079 583.296 402.557C582.481 403.871 581.322 404.78 580.025 405.12C578.728 405.461 577.376 405.212 576.211 404.418C575.046 403.624 574.143 402.335 573.662 400.782C573.181 399.229 573.153 397.512 573.584 395.935L573.68 395.593C576.455 386.143 578.716 376.467 580.448 366.632C581.233 362.238 581.64 357.751 581.664 353.248C581.667 351.504 581.495 349.766 581.152 348.076C580.759 346.545 580.222 345.079 579.552 343.709C576.024 334.811 572.02 326.224 567.568 318.008C565.376 313.983 563.04 309.958 560.64 306.295C559.44 304.403 558.192 302.612 556.96 300.841L555.104 298.285L554.208 297.097L553.792 296.554L553.52 296.232C551.277 293.779 549.901 290.307 549.694 286.577C549.487 282.848 550.466 279.169 552.416 276.348C554.366 273.527 557.127 271.796 560.091 271.535C563.056 271.275 565.981 272.506 568.224 274.959L568.208 275.04Z" fill="#FF8B7B"/>
<path d="M554.416 257.611C566.88 260.328 579.296 279.005 586.704 296.353C581.595 307.198 573.944 315.788 564.8 320.947C564.8 320.947 550.176 303.035 544.336 289.913C538.496 276.791 542.688 255.055 554.416 257.611Z" fill="#0690FF"/>
<path d="M586.272 292.388C587.406 294.066 588.29 295.989 588.88 298.063C585.68 304.101 578.096 320.061 564.224 323.18C562.896 322.206 561.89 320.663 561.392 318.833C561.392 318.833 577.408 309.253 586.272 292.388Z" fill="#263238"/>
<path d="M545.392 256.202C542.816 254.813 543.792 252.981 543.792 252.981C543.792 252.981 555.648 253.505 563.76 256.745C564.96 258.536 563.552 260.77 563.552 260.77C563.552 260.77 553.04 260.327 545.392 256.202Z" fill="#263238"/>
<path opacity="0.2" d="M542.288 252.58C542.288 252.58 539.6 264.373 527.312 273.993C532.688 273.993 536.288 286.33 536.288 286.33C536.288 286.33 547.488 269.787 544.896 253.465C544.144 252.016 542.288 252.58 542.288 252.58Z" fill="black"/>
<path d="M541.936 250.446C541.936 250.446 538.736 263.206 527.312 273.993C532.688 273.993 536.416 281.299 536.416 281.299C536.416 281.299 547.424 269.787 544.896 253.465C544.059 252.246 543.057 251.224 541.936 250.446V250.446Z" fill="#0690FF"/>
<path d="M553.456 298.888C552.72 316.277 543.968 320.423 542.736 320.423C541.504 320.423 533.136 316.277 533.872 298.888L543.872 293.938L553.456 298.888Z" fill="white"/>
<path d="M574.992 394.547L565.136 405.214L578.208 415.9C578.208 415.9 586.208 404.871 582.24 398.592L574.992 394.547Z" fill="#FF8B7B"/>
<path d="M564.032 422.139L569.104 424.896C570.083 425.432 571.181 425.513 572.204 425.126C573.226 424.739 574.106 423.909 574.688 422.783L578.208 415.9L565.136 405.213L561.728 414.571C561.478 415.257 561.34 415.999 561.321 416.753C561.302 417.508 561.402 418.259 561.617 418.963C561.832 419.668 562.156 420.312 562.57 420.857C562.985 421.402 563.482 421.838 564.032 422.139V422.139Z" fill="#FF8B7B"/>
<path d="M508.32 179.261C499.536 180.77 502.48 184.272 522.064 187.412C541.648 190.552 546.56 188.076 546.56 188.076C546.56 188.076 524.064 179.201 508.32 179.261Z" fill="#263238"/>
<path d="M552.624 192.866C552.624 192.866 535.424 184.071 508.32 179.261C507.984 174.25 511.264 168.937 511.264 168.937C511.264 168.937 505.216 165.133 507.088 157.867C508.96 150.602 517.616 151.548 527.712 145.792C531.408 150.904 541.568 159.216 548.512 160.283C550.224 164.73 554.704 175.86 561.968 180.147C561.856 184.997 554.64 186.184 554.64 186.184C554.673 187.411 554.511 188.633 554.165 189.78C553.819 190.927 553.295 191.976 552.624 192.866V192.866Z" fill="#0690FF"/>
<path opacity="0.3" d="M554.624 186.184C548.336 178.999 526 165.877 511.264 168.936C511.264 168.936 507.984 174.269 508.32 179.26C535.424 184.071 552.624 192.866 552.624 192.866C553.292 191.974 553.813 190.924 554.157 189.777C554.5 188.63 554.659 187.409 554.624 186.184V186.184Z" fill="black"/>
<path d="M530.304 160.564C528.368 172.962 521.648 175.196 520.704 175.075C519.76 174.954 514 171.291 515.904 158.974L523.632 156.277L530.304 160.564Z" fill="white"/>
<path d="M402.8 363.714C401.823 363.713 400.88 363.263 400.149 362.447C399.418 361.631 398.949 360.507 398.832 359.287L387.408 242.175C387.279 240.84 387.576 239.496 388.235 238.437C388.893 237.379 389.859 236.692 390.92 236.53C391.981 236.367 393.05 236.741 393.891 237.569C394.733 238.398 395.279 239.613 395.408 240.947L406.768 358.119C406.835 358.775 406.799 359.441 406.66 360.079C406.522 360.717 406.284 361.314 405.962 361.836C405.639 362.358 405.237 362.795 404.78 363.12C404.322 363.446 403.818 363.655 403.296 363.735L402.8 363.714Z" fill="#263238"/>
<path d="M400.256 311.025C399.28 306.516 401.12 305.852 399.344 299.452C398.4 296.051 401.504 293.415 401.888 296.152C403.328 306.114 413.84 311.689 410.192 317.988C406.544 324.287 401.216 315.533 400.256 311.025Z" fill="#FF8B7B"/>
<path d="M471.566 142.343C474.704 79.4324 436.703 25.2338 386.69 21.2869C336.676 17.3399 293.588 65.1392 290.45 128.05C287.312 190.96 325.313 245.159 375.327 249.106C425.34 253.053 468.428 205.253 471.566 142.343Z" fill="#0690FF"/>
<path d="M450.058 165.959C463.574 117.975 443.607 65.2929 405.459 48.2913C367.311 31.2897 325.429 56.4062 311.913 104.391C298.397 152.375 318.365 205.057 356.512 222.059C394.66 239.06 436.542 213.944 450.058 165.959Z" fill="white"/>
<path d="M428.592 119.608C422.576 109.384 410.992 119.608 407.52 130.355C406.577 133.022 405.957 135.85 405.68 138.748L401.856 105.923L398.832 74.8082C398.513 72.1382 397.379 69.73 395.67 68.0959C393.962 66.4619 391.813 65.731 389.683 66.0588C387.552 66.3866 385.608 67.7472 384.262 69.851C382.917 71.9549 382.278 74.636 382.48 77.3239L381.728 69.5754C381.596 68.2262 381.253 66.923 380.72 65.7402C380.188 64.5574 379.475 63.5182 378.623 62.6818C377.771 61.8455 376.796 61.2285 375.754 60.866C374.713 60.5035 373.625 60.4026 372.552 60.5692C371.479 60.7357 370.443 61.1663 369.503 61.8364C368.563 62.5066 367.736 63.4032 367.072 64.475C366.407 65.5467 365.916 66.7728 365.628 68.083C365.34 69.3933 365.26 70.7621 365.392 72.1113L366.448 82.8987C366.305 81.4387 365.916 80.0337 365.307 78.7773C364.699 77.5209 363.885 76.4418 362.919 75.6117C361.954 74.7817 360.859 74.2197 359.707 73.9632C358.555 73.7066 357.373 73.7614 356.24 74.1239C354.299 74.7503 352.606 76.2432 351.475 78.3242C350.345 80.4053 349.854 82.9325 350.096 85.4346L351.408 98.8987C351.267 97.4373 350.88 96.0305 350.272 94.7724C349.664 93.5143 348.85 92.4338 347.884 91.6032C346.918 90.7726 345.822 90.2109 344.669 89.9558C343.516 89.7007 342.334 89.758 341.2 90.1239V90.1239C339.262 90.7463 337.57 92.2361 336.442 94.3144C335.314 96.3927 334.827 98.9169 335.072 101.414L337.696 128.323L339.568 147.623L342.048 172.962C343.808 191.075 349.424 201.299 357.76 205.908C370.56 212.972 394 213.052 404.528 202.305C413.744 192.906 419.664 170.265 421.088 156.237C422.512 142.209 431.04 123.734 428.592 119.608Z" fill="#263238"/>
<path d="M442.42 55.7175L427.482 41.0312L319.564 214.715L334.503 229.401L442.42 55.7175Z" fill="#0690FF"/>
<path d="M128.704 301.928V265.299H149.776V269.565H132.56V280.796H148.672V285.103H132.56V297.56H150.4V301.887L128.704 301.928Z" fill="#263238"/>
<path d="M155.28 301.928V275.382H158.48V279.407C159.019 277.978 159.794 276.709 160.752 275.684C161.421 275.089 162.221 274.772 163.04 274.778C164.352 274.824 165.627 275.333 166.72 276.248L165.488 280.414C164.699 279.797 163.792 279.463 162.864 279.448C162.105 279.432 161.365 279.745 160.768 280.333C160.125 280.953 159.655 281.812 159.424 282.788C159.021 284.493 158.822 286.263 158.832 288.041V301.928H155.28Z" fill="#263238"/>
<path d="M168.832 301.927V275.382H172.032V279.407C172.591 277.937 173.4 276.638 174.4 275.603C175.07 275.01 175.869 274.694 176.688 274.697C178 274.743 179.275 275.252 180.368 276.166L179.136 280.333C178.347 279.716 177.44 279.382 176.512 279.366C175.753 279.351 175.013 279.664 174.416 280.252C173.773 280.872 173.303 281.731 173.072 282.707C172.669 284.412 172.47 286.182 172.48 287.96V301.847L168.832 301.927Z" fill="#263238"/>
<path d="M181.088 288.665C181.088 283.754 182.155 280.111 184.288 277.736C186.127 275.75 188.489 274.695 190.912 274.778C192.233 274.719 193.549 275.009 194.776 275.63C196.002 276.25 197.111 277.187 198.032 278.38C198.99 279.72 199.727 281.284 200.202 282.984C200.677 284.683 200.88 286.484 200.8 288.282C200.899 291.05 200.477 293.809 199.568 296.333C198.774 298.263 197.536 299.848 196.016 300.881C194.456 301.971 192.697 302.533 190.912 302.511C189.588 302.579 188.268 302.296 187.036 301.683C185.804 301.069 184.688 300.138 183.76 298.949C181.832 296.094 180.873 292.401 181.088 288.665ZM184.768 288.665C184.605 291.391 185.23 294.099 186.528 296.292C187.082 297.088 187.765 297.725 188.531 298.162C189.296 298.598 190.127 298.824 190.968 298.824C191.809 298.824 192.64 298.598 193.406 298.162C194.171 297.725 194.854 297.088 195.408 296.292C196.724 294.049 197.355 291.284 197.184 288.504C197.336 285.832 196.704 283.183 195.408 281.057C194.853 280.265 194.169 279.63 193.404 279.196C192.638 278.761 191.808 278.536 190.968 278.536C190.128 278.536 189.298 278.761 188.532 279.196C187.767 279.63 187.084 280.265 186.528 281.057C185.234 283.245 184.609 285.945 184.768 288.665V288.665Z" fill="#263238"/>
<path d="M133.037 340.989V352H129.427V333.455H132.892V336.473H133.121C133.548 335.491 134.216 334.702 135.126 334.107C136.043 333.511 137.198 333.213 138.591 333.213C139.855 333.213 140.961 333.479 141.911 334.01C142.861 334.533 143.598 335.314 144.121 336.352C144.644 337.391 144.906 338.674 144.906 340.204V352H141.295V340.638C141.295 339.294 140.945 338.244 140.245 337.487C139.545 336.723 138.583 336.34 137.359 336.34C136.522 336.34 135.778 336.521 135.126 336.884C134.482 337.246 133.971 337.777 133.592 338.477C133.222 339.17 133.037 340.007 133.037 340.989ZM155.144 352.411C153.969 352.411 152.906 352.193 151.957 351.759C151.007 351.316 150.254 350.676 149.699 349.839C149.152 349.002 148.878 347.975 148.878 346.76C148.878 345.714 149.079 344.852 149.482 344.176C149.884 343.5 150.427 342.965 151.112 342.57C151.796 342.176 152.56 341.878 153.406 341.677C154.251 341.476 155.112 341.323 155.989 341.218C157.1 341.089 158.002 340.985 158.694 340.904C159.386 340.816 159.889 340.675 160.203 340.482C160.517 340.288 160.674 339.974 160.674 339.54V339.455C160.674 338.401 160.376 337.584 159.781 337.004C159.193 336.425 158.316 336.135 157.148 336.135C155.933 336.135 154.975 336.405 154.275 336.944C153.583 337.475 153.104 338.067 152.838 338.719L149.445 337.946C149.848 336.819 150.435 335.91 151.208 335.217C151.989 334.517 152.886 334.01 153.901 333.696C154.915 333.374 155.981 333.213 157.1 333.213C157.841 333.213 158.625 333.302 159.455 333.479C160.292 333.648 161.072 333.962 161.797 334.42C162.529 334.879 163.129 335.535 163.596 336.388C164.063 337.234 164.296 338.332 164.296 339.685V352H160.771V349.464H160.626C160.392 349.931 160.042 350.39 159.575 350.841C159.108 351.292 158.509 351.666 157.776 351.964C157.044 352.262 156.166 352.411 155.144 352.411ZM155.929 349.513C156.927 349.513 157.78 349.316 158.489 348.921C159.205 348.527 159.748 348.012 160.119 347.376C160.497 346.732 160.686 346.044 160.686 345.311V342.92C160.557 343.049 160.308 343.17 159.938 343.283C159.575 343.387 159.161 343.48 158.694 343.56C158.227 343.633 157.772 343.701 157.33 343.766C156.887 343.822 156.517 343.87 156.219 343.911C155.518 343.999 154.879 344.148 154.299 344.357C153.728 344.567 153.269 344.868 152.923 345.263C152.585 345.649 152.415 346.164 152.415 346.808C152.415 347.702 152.746 348.378 153.406 348.837C154.066 349.287 154.907 349.513 155.929 349.513ZM153.659 331.209L151.232 331.136C151.232 329.8 151.59 328.734 152.307 327.937C153.031 327.14 153.925 326.741 154.987 326.741C155.478 326.741 155.909 326.826 156.279 326.995C156.649 327.156 156.996 327.345 157.317 327.562C157.647 327.772 157.973 327.961 158.295 328.13C158.625 328.291 158.992 328.371 159.394 328.371C159.861 328.371 160.239 328.194 160.529 327.84C160.827 327.486 160.976 327.047 160.976 326.524L163.354 326.681C163.354 328.025 162.992 329.084 162.268 329.857C161.543 330.621 160.654 331.008 159.599 331.016C159.028 331.016 158.553 330.935 158.175 330.774C157.804 330.605 157.474 330.416 157.185 330.207C156.895 329.989 156.597 329.796 156.291 329.627C155.985 329.458 155.619 329.374 155.192 329.374C154.742 329.374 154.371 329.551 154.082 329.905C153.8 330.251 153.659 330.686 153.659 331.209ZM176.916 352.374C175.178 352.374 173.66 351.976 172.365 351.179C171.069 350.382 170.062 349.267 169.346 347.835C168.63 346.402 168.271 344.728 168.271 342.812C168.271 340.888 168.63 339.206 169.346 337.765C170.062 336.324 171.069 335.205 172.365 334.408C173.66 333.612 175.178 333.213 176.916 333.213C178.655 333.213 180.172 333.612 181.468 334.408C182.764 335.205 183.77 336.324 184.487 337.765C185.203 339.206 185.561 340.888 185.561 342.812C185.561 344.728 185.203 346.402 184.487 347.835C183.77 349.267 182.764 350.382 181.468 351.179C180.172 351.976 178.655 352.374 176.916 352.374ZM176.928 349.344C178.055 349.344 178.989 349.046 179.73 348.45C180.47 347.855 181.017 347.062 181.372 346.072C181.734 345.082 181.915 343.991 181.915 342.8C181.915 341.616 181.734 340.53 181.372 339.54C181.017 338.542 180.47 337.741 179.73 337.137C178.989 336.533 178.055 336.232 176.928 336.232C175.794 336.232 174.852 336.533 174.103 337.137C173.363 337.741 172.811 338.542 172.449 339.54C172.095 340.53 171.918 341.616 171.918 342.8C171.918 343.991 172.095 345.082 172.449 346.072C172.811 347.062 173.363 347.855 174.103 348.45C174.852 349.046 175.794 349.344 176.928 349.344ZM203.986 352.411C202.811 352.411 201.748 352.193 200.798 351.759C199.849 351.316 199.096 350.676 198.541 349.839C197.993 349.002 197.72 347.975 197.72 346.76C197.72 345.714 197.921 344.852 198.323 344.176C198.726 343.5 199.269 342.965 199.953 342.57C200.637 342.176 201.402 341.878 202.247 341.677C203.093 341.476 203.954 341.323 204.831 341.218C205.942 341.089 206.843 340.985 207.536 340.904C208.228 340.816 208.731 340.675 209.045 340.482C209.359 340.288 209.516 339.974 209.516 339.54V339.455C209.516 338.401 209.218 337.584 208.622 337.004C208.035 336.425 207.157 336.135 205.99 336.135C204.775 336.135 203.817 336.405 203.117 336.944C202.424 337.475 201.945 338.067 201.68 338.719L198.287 337.946C198.69 336.819 199.277 335.91 200.05 335.217C200.831 334.517 201.728 334.01 202.742 333.696C203.757 333.374 204.823 333.213 205.942 333.213C206.682 333.213 207.467 333.302 208.296 333.479C209.133 333.648 209.914 333.962 210.639 334.42C211.371 334.879 211.971 335.535 212.438 336.388C212.905 337.234 213.138 338.332 213.138 339.685V352H209.612V349.464H209.468C209.234 349.931 208.884 350.39 208.417 350.841C207.95 351.292 207.351 351.666 206.618 351.964C205.886 352.262 205.008 352.411 203.986 352.411ZM204.771 349.513C205.769 349.513 206.622 349.316 207.33 348.921C208.047 348.527 208.59 348.012 208.96 347.376C209.339 346.732 209.528 346.044 209.528 345.311V342.92C209.399 343.049 209.15 343.17 208.779 343.283C208.417 343.387 208.003 343.48 207.536 343.56C207.069 343.633 206.614 343.701 206.171 343.766C205.729 343.822 205.358 343.87 205.061 343.911C204.36 343.999 203.72 344.148 203.141 344.357C202.569 344.567 202.11 344.868 201.764 345.263C201.426 345.649 201.257 346.164 201.257 346.808C201.257 347.702 201.587 348.378 202.247 348.837C202.907 349.287 203.749 349.513 204.771 349.513ZM229.694 344.309V333.455H233.316V352H229.767V348.788H229.574C229.147 349.778 228.463 350.603 227.521 351.263C226.587 351.915 225.424 352.241 224.032 352.241C222.84 352.241 221.786 351.98 220.868 351.457C219.959 350.925 219.242 350.141 218.719 349.102C218.204 348.064 217.946 346.78 217.946 345.251V333.455H221.556V344.816C221.556 346.08 221.907 347.086 222.607 347.835C223.307 348.583 224.217 348.957 225.336 348.957C226.012 348.957 226.684 348.788 227.352 348.45C228.028 348.112 228.587 347.601 229.03 346.917C229.481 346.233 229.702 345.363 229.694 344.309ZM246.824 333.455V336.352H236.694V333.455H246.824ZM239.411 329.011H243.021V346.555C243.021 347.255 243.125 347.782 243.335 348.136C243.544 348.482 243.814 348.72 244.144 348.849C244.482 348.969 244.848 349.03 245.242 349.03C245.532 349.03 245.786 349.01 246.003 348.969C246.22 348.929 246.389 348.897 246.51 348.873L247.162 351.855C246.953 351.936 246.655 352.016 246.269 352.097C245.882 352.185 245.399 352.233 244.82 352.241C243.87 352.258 242.985 352.089 242.164 351.734C241.343 351.38 240.678 350.833 240.171 350.092C239.664 349.352 239.411 348.422 239.411 347.303V329.011ZM258.43 352.374C256.691 352.374 255.174 351.976 253.878 351.179C252.582 350.382 251.576 349.267 250.86 347.835C250.143 346.402 249.785 344.728 249.785 342.812C249.785 340.888 250.143 339.206 250.86 337.765C251.576 336.324 252.582 335.205 253.878 334.408C255.174 333.612 256.691 333.213 258.43 333.213C260.169 333.213 261.686 333.612 262.982 334.408C264.278 335.205 265.284 336.324 266 337.765C266.717 339.206 267.075 340.888 267.075 342.812C267.075 344.728 266.717 346.402 266 347.835C265.284 349.267 264.278 350.382 262.982 351.179C261.686 351.976 260.169 352.374 258.43 352.374ZM258.442 349.344C259.569 349.344 260.503 349.046 261.243 348.45C261.984 347.855 262.531 347.062 262.885 346.072C263.248 345.082 263.429 343.991 263.429 342.8C263.429 341.616 263.248 340.53 262.885 339.54C262.531 338.542 261.984 337.741 261.243 337.137C260.503 336.533 259.569 336.232 258.442 336.232C257.307 336.232 256.365 336.533 255.617 337.137C254.876 337.741 254.325 338.542 253.963 339.54C253.609 340.53 253.431 341.616 253.431 342.8C253.431 343.991 253.609 345.082 253.963 346.072C254.325 347.062 254.876 347.855 255.617 348.45C256.365 349.046 257.307 349.344 258.442 349.344ZM271.105 352V333.455H274.594V336.401H274.787C275.125 335.402 275.721 334.618 276.574 334.046C277.435 333.467 278.409 333.177 279.496 333.177C279.721 333.177 279.987 333.185 280.293 333.201C280.607 333.217 280.852 333.237 281.029 333.261V336.714C280.884 336.674 280.627 336.63 280.257 336.582C279.886 336.525 279.516 336.497 279.146 336.497C278.293 336.497 277.532 336.678 276.864 337.04C276.204 337.395 275.681 337.89 275.294 338.526C274.908 339.153 274.715 339.87 274.715 340.675V352H271.105ZM284.153 352V333.455H287.763V352H284.153ZM285.977 330.593C285.349 330.593 284.809 330.384 284.359 329.965C283.916 329.539 283.695 329.031 283.695 328.444C283.695 327.848 283.916 327.341 284.359 326.923C284.809 326.496 285.349 326.283 285.977 326.283C286.604 326.283 287.14 326.496 287.582 326.923C288.033 327.341 288.259 327.848 288.259 328.444C288.259 329.031 288.033 329.539 287.582 329.965C287.14 330.384 286.604 330.593 285.977 330.593ZM292.234 352V349.525L302.279 336.763V336.594H292.56V333.455H306.783V336.087L297.124 348.692V348.861H307.121V352H292.234ZM316.777 352.411C315.602 352.411 314.539 352.193 313.589 351.759C312.64 351.316 311.887 350.676 311.332 349.839C310.784 349.002 310.511 347.975 310.511 346.76C310.511 345.714 310.712 344.852 311.114 344.176C311.517 343.5 312.06 342.965 312.744 342.57C313.429 342.176 314.193 341.878 315.038 341.677C315.884 341.476 316.745 341.323 317.622 341.218C318.733 341.089 319.634 340.985 320.327 340.904C321.019 340.816 321.522 340.675 321.836 340.482C322.15 340.288 322.307 339.974 322.307 339.54V339.455C322.307 338.401 322.009 337.584 321.413 337.004C320.826 336.425 319.948 336.135 318.781 336.135C317.566 336.135 316.608 336.405 315.908 336.944C315.215 337.475 314.737 338.067 314.471 338.719L311.078 337.946C311.481 336.819 312.068 335.91 312.841 335.217C313.622 334.517 314.519 334.01 315.533 333.696C316.548 333.374 317.614 333.213 318.733 333.213C319.473 333.213 320.258 333.302 321.087 333.479C321.924 333.648 322.705 333.962 323.43 334.42C324.162 334.879 324.762 335.535 325.229 336.388C325.696 337.234 325.929 338.332 325.929 339.685V352H322.403V349.464H322.259C322.025 349.931 321.675 350.39 321.208 350.841C320.741 351.292 320.142 351.666 319.409 351.964C318.677 352.262 317.799 352.411 316.777 352.411ZM317.562 349.513C318.56 349.513 319.413 349.316 320.121 348.921C320.838 348.527 321.381 348.012 321.751 347.376C322.13 346.732 322.319 346.044 322.319 345.311V342.92C322.19 343.049 321.941 343.17 321.57 343.283C321.208 343.387 320.794 343.48 320.327 343.56C319.86 343.633 319.405 343.701 318.962 343.766C318.52 343.822 318.149 343.87 317.852 343.911C317.151 343.999 316.511 344.148 315.932 344.357C315.36 344.567 314.902 344.868 314.555 345.263C314.217 345.649 314.048 346.164 314.048 346.808C314.048 347.702 314.378 348.378 315.038 348.837C315.698 349.287 316.54 349.513 317.562 349.513ZM337.68 352.362C336.183 352.362 334.847 351.98 333.671 351.215C332.504 350.442 331.587 349.344 330.919 347.919C330.258 346.486 329.928 344.768 329.928 342.763C329.928 340.759 330.262 339.045 330.931 337.62C331.607 336.195 332.532 335.105 333.708 334.348C334.883 333.591 336.215 333.213 337.704 333.213C338.855 333.213 339.781 333.406 340.481 333.793C341.189 334.171 341.737 334.614 342.123 335.121C342.517 335.628 342.823 336.075 343.041 336.461H343.258V327.273H346.868V352H343.343V349.114H343.041C342.823 349.509 342.509 349.96 342.099 350.467C341.696 350.974 341.141 351.416 340.433 351.795C339.724 352.173 338.807 352.362 337.68 352.362ZM338.477 349.283C339.515 349.283 340.392 349.01 341.109 348.462C341.833 347.907 342.381 347.138 342.751 346.156C343.129 345.174 343.318 344.031 343.318 342.727C343.318 341.439 343.133 340.312 342.763 339.347C342.393 338.381 341.849 337.628 341.133 337.089C340.417 336.549 339.531 336.28 338.477 336.28C337.39 336.28 336.485 336.562 335.76 337.125C335.036 337.688 334.488 338.457 334.118 339.431C333.756 340.405 333.575 341.504 333.575 342.727C333.575 343.967 333.76 345.082 334.13 346.072C334.5 347.062 335.048 347.847 335.772 348.426C336.505 348.998 337.406 349.283 338.477 349.283ZM359.832 352.374C358.094 352.374 356.576 351.976 355.281 351.179C353.985 350.382 352.978 349.267 352.262 347.835C351.546 346.402 351.188 344.728 351.188 342.812C351.188 340.888 351.546 339.206 352.262 337.765C352.978 336.324 353.985 335.205 355.281 334.408C356.576 333.612 358.094 333.213 359.832 333.213C361.571 333.213 363.088 333.612 364.384 334.408C365.68 335.205 366.686 336.324 367.403 337.765C368.119 339.206 368.477 340.888 368.477 342.812C368.477 344.728 368.119 346.402 367.403 347.835C366.686 349.267 365.68 350.382 364.384 351.179C363.088 351.976 361.571 352.374 359.832 352.374ZM359.844 349.344C360.971 349.344 361.905 349.046 362.646 348.45C363.386 347.855 363.933 347.062 364.288 346.072C364.65 345.082 364.831 343.991 364.831 342.8C364.831 341.616 364.65 340.53 364.288 339.54C363.933 338.542 363.386 337.741 362.646 337.137C361.905 336.533 360.971 336.232 359.844 336.232C358.71 336.232 357.768 336.533 357.019 337.137C356.279 337.741 355.727 338.542 355.365 339.54C355.011 340.53 354.834 341.616 354.834 342.8C354.834 343.991 355.011 345.082 355.365 346.072C355.727 347.062 356.279 347.855 357.019 348.45C357.768 349.046 358.71 349.344 359.844 349.344Z" fill="black"/>
</svg>
