<svg width="800" height="800" viewBox="0 0 800 800" fill="none" xmlns="http://www.w3.org/2000/svg">
<path d="M800 710.896H0V711.389H800V710.896Z" fill="#EBEBEB"/>
<path d="M719.84 742.643H666.848V743.136H719.84V742.643Z" fill="#EBEBEB"/>
<path d="M437.152 736.466H416.528V736.959H437.152V736.466Z" fill="#EBEBEB"/>
<path d="M559.472 738.558H516.048V739.051H559.472V738.558Z" fill="#EBEBEB"/>
<path d="M665.248 724.332H575.472V724.825H665.248V724.332Z" fill="#EBEBEB"/>
<path d="M126.384 747.16H83.936V747.653H126.384V747.16Z" fill="#EBEBEB"/>
<path d="M177.424 747.16H140.624V747.653H177.424V747.16Z" fill="#EBEBEB"/>
<path d="M306.896 736.229H209.6V736.723H306.896V736.229Z" fill="#EBEBEB"/>
<path d="M379.2 622.895H70.256C67.8357 622.89 65.5161 621.7 63.8062 619.588C62.0963 617.476 61.136 614.613 61.136 611.629V76.072C61.1571 73.1045 62.1267 70.2671 63.8343 68.1761C65.5419 66.0851 67.8495 64.9094 70.256 64.9043H379.2C381.623 64.9043 383.947 66.0913 385.66 68.2041C387.373 70.317 388.336 73.1826 388.336 76.1707V611.629C388.336 614.617 387.373 617.482 385.66 619.595C383.947 621.708 381.623 622.895 379.2 622.895V622.895ZM70.256 65.2989C67.9418 65.3041 65.7239 66.4415 64.089 68.4612C62.4542 70.481 61.536 73.2182 61.536 76.072V611.629C61.536 614.482 62.4542 617.22 64.089 619.239C65.7239 621.259 67.9418 622.396 70.256 622.402H379.2C381.516 622.396 383.735 621.26 385.373 619.24C387.01 617.221 387.932 614.484 387.936 611.629V76.072C387.932 73.2164 387.01 70.4793 385.373 68.46C383.735 66.4408 381.516 65.3041 379.2 65.2989H70.256Z" fill="#EBEBEB"/>
<path d="M725.296 622.895H416.336C413.914 622.89 411.593 621.701 409.881 619.589C408.168 617.478 407.204 614.615 407.2 611.629V76.072C407.225 73.1027 408.198 70.2653 409.909 68.1749C411.619 66.0844 413.928 64.9093 416.336 64.9043H725.296C727.7 64.9146 730.003 66.0926 731.707 68.183C733.411 70.2735 734.379 73.1079 734.4 76.072V611.629C734.4 614.61 733.442 617.469 731.735 619.581C730.029 621.693 727.713 622.884 725.296 622.895V622.895ZM416.336 65.2989C414.02 65.3041 411.801 66.4408 410.163 68.46C408.526 70.4793 407.604 73.2164 407.6 76.072V611.629C407.604 614.484 408.526 617.221 410.163 619.24C411.801 621.26 414.02 622.396 416.336 622.402H725.296C727.612 622.396 729.831 621.26 731.469 619.24C733.106 617.221 734.028 614.484 734.032 611.629V76.072C734.028 73.2164 733.106 70.4793 731.469 68.46C729.831 66.4408 727.612 65.3041 725.296 65.2989H416.336Z" fill="#EBEBEB"/>
<path d="M747.296 339.5C752.311 318.126 751.751 295.348 745.696 274.388C752.126 263.037 756.389 250.039 758.165 236.368C759.941 222.696 759.184 208.706 755.952 195.447C752.719 182.187 747.094 170.002 739.499 159.805C731.904 149.608 722.535 141.663 712.096 136.567C709.043 109.429 700.332 83.7326 686.814 61.99C673.296 40.2473 655.433 23.2029 634.974 12.5232C614.514 1.84357 592.157 -2.10573 570.088 1.06147C548.02 4.22867 526.996 14.404 509.072 30.5924C500.063 18.9255 488.434 10.8415 475.676 7.37625C462.917 3.91105 449.61 5.22248 437.46 11.1425C425.31 17.0625 414.87 27.3215 407.478 40.6049C400.085 53.8882 396.078 69.5909 395.968 85.7009C379.086 89.877 363.378 99.4077 350.393 113.353C337.409 127.299 327.596 145.177 321.924 165.225C316.251 185.274 314.914 206.799 318.045 227.679C321.175 248.559 328.665 268.071 339.776 284.293C334.341 296.377 331.186 309.817 330.545 323.613C329.903 337.409 331.792 351.206 336.071 363.978C340.35 376.749 346.908 388.167 355.259 397.381C363.61 406.596 373.537 413.37 384.304 417.2C396.873 421.691 410.181 422.004 422.88 418.108C440.09 447.355 465.698 467.407 494.483 474.175C523.268 480.943 553.062 473.918 577.792 454.531C589.84 489.041 599.728 540.814 578.432 591.582C655.792 582.23 711.648 490.737 700.256 406.901C711.571 400.507 721.632 391.174 729.751 379.541C737.87 367.908 743.854 354.25 747.296 339.5V339.5Z" fill="#EBEBEB"/>
<path d="M598.912 572.641C598.701 572.642 598.493 572.592 598.298 572.494C598.103 572.396 597.925 572.251 597.776 572.068C597.57 571.815 597.424 571.498 597.354 571.15C597.283 570.803 597.291 570.438 597.376 570.095C608.272 523.294 598.336 478.425 588.096 449.026L582.896 434.13L571.792 442.831C549.479 460.328 522.596 466.673 496.621 460.573C470.646 454.472 447.535 436.385 432 409.999L427.552 402.442L420.224 404.691C408.251 408.366 395.668 407.645 384.023 402.618C372.378 397.591 362.178 388.476 354.678 376.395C347.178 364.314 342.705 349.793 341.808 334.618C340.912 319.443 343.631 304.276 349.632 290.982L353.36 282.655L348.384 275.394C338.526 261.011 331.878 243.707 329.096 225.189C326.315 206.671 327.496 187.579 332.522 169.796C337.549 152.012 346.248 136.152 357.761 123.778C369.274 111.405 383.204 102.946 398.176 99.2365L407.072 97.0266L407.168 85.8589C407.25 72.4925 410.568 59.4611 416.697 48.4361C422.826 37.411 431.485 28.8951 441.565 23.9806C451.645 19.066 462.686 17.977 473.271 20.853C483.857 23.7291 493.504 30.4392 500.976 40.1226L507.76 48.8831L515.76 41.7405C532.117 26.9447 551.309 17.6393 571.457 14.735C591.605 11.8306 612.02 15.4269 630.703 25.1717C649.386 34.9166 665.697 50.4762 678.041 70.3278C690.384 90.1795 698.337 113.643 701.12 138.422L702.032 146.314L708.096 149.274C716.963 153.603 724.92 160.352 731.37 169.015C737.82 177.678 742.595 188.03 745.337 199.294C748.079 210.558 748.717 222.442 747.202 234.053C745.688 245.665 742.06 256.702 736.592 266.338L733.296 272.158L735.232 278.867C741.535 300.752 740.96 324.755 733.621 346.143C726.282 367.531 712.711 384.753 695.584 394.411L687.792 398.831L689.216 409.249C694.016 445.021 685.328 484.088 665.216 516.447C648.61 543.276 625.547 562.938 599.328 572.621C599.191 572.652 599.051 572.659 598.912 572.641ZM583.632 429.295C583.786 429.268 583.942 429.268 584.096 429.295C584.316 429.38 584.519 429.523 584.69 429.714C584.861 429.905 584.997 430.139 585.088 430.4L591.024 447.408C601.232 476.669 611.104 520.985 601.216 567.629C625.661 557.826 647.108 539.08 662.704 513.882C682.256 482.312 690.768 444.429 686.064 409.742L684.464 397.904C684.403 397.476 684.457 397.036 684.619 396.651C684.781 396.265 685.041 395.957 685.36 395.773L694.256 390.741C710.623 381.489 723.589 365.018 730.604 344.57C737.619 324.121 738.174 301.176 732.16 280.248L729.952 272.592C729.868 272.294 729.843 271.976 729.879 271.663C729.915 271.351 730.011 271.054 730.16 270.797L733.92 264.128C739.113 254.983 742.559 244.506 743.999 233.484C745.439 222.461 744.835 211.18 742.233 200.486C739.631 189.793 735.098 179.966 728.975 171.742C722.852 163.518 715.298 157.111 706.88 153.003L699.936 149.61C699.674 149.481 699.444 149.269 699.27 148.995C699.096 148.721 698.983 148.395 698.944 148.051L697.904 138.955C695.207 114.842 687.477 92.0072 675.47 72.6872C663.464 53.3672 647.594 38.2251 629.414 28.7444C611.235 19.2637 591.37 15.7697 571.766 18.6048C552.162 21.44 533.491 30.5069 517.584 44.9172L508.512 53.0661C508.2 53.3483 507.816 53.4819 507.431 53.442C507.046 53.4021 506.685 53.1914 506.416 52.849L498.656 42.8455C493.864 36.6813 488.111 31.7739 481.744 28.4174C475.376 25.0608 468.525 23.3243 461.6 23.3118C448.101 23.3111 435.148 29.8847 425.559 41.6021C415.971 53.3194 410.522 69.2325 410.4 85.8786L410.288 98.6643C410.296 99.1259 410.172 99.5761 409.938 99.9366C409.704 100.297 409.375 100.545 409.008 100.637L398.848 103.163C384.427 106.739 371.011 114.888 359.921 126.805C348.831 138.722 340.451 153.997 335.606 171.125C330.761 188.252 329.619 206.641 332.292 224.479C334.964 242.316 341.36 258.987 350.848 272.849L356.528 281.156C356.737 281.461 356.866 281.838 356.897 282.237C356.929 282.635 356.861 283.035 356.704 283.385L352.448 292.896C350.249 297.777 348.5 302.945 347.232 308.305C344.305 320.814 344.1 334.053 346.637 346.691C349.174 359.329 354.364 370.921 361.685 380.301C369.006 389.682 378.201 396.52 388.345 400.13C398.488 403.739 409.224 403.992 419.472 400.863L427.856 398.298C428.165 398.203 428.49 398.223 428.789 398.357C429.088 398.49 429.348 398.731 429.536 399.048L434.608 407.67C449.648 433.287 472.055 450.853 497.247 456.776C522.44 462.699 548.516 456.532 570.144 439.536L582.832 429.67C583.066 429.458 583.343 429.328 583.632 429.295V429.295Z" fill="white"/>
<path d="M486.704 244.831L443.824 236.564L444.48 231.276C445.23 223.812 447.005 216.559 449.728 209.829C452.117 204.501 455.285 199.765 459.072 195.859C462.923 191.913 471.307 185.165 484.224 175.615C491.088 170.643 494.848 165.631 495.424 160.521C495.803 158.35 495.807 156.105 495.435 153.933C495.063 151.76 494.323 149.709 493.264 147.913C491.184 144.618 487.648 142.487 482.688 141.54C480.245 140.968 477.732 141.023 475.307 141.702C472.881 142.381 470.596 143.669 468.592 145.486C464.539 149.182 461.339 156.364 458.992 167.032L416.048 151.938C420.059 132.378 427.931 117.521 439.664 107.366C451.397 97.2109 467.792 94.1592 488.848 98.2106C505.253 101.354 517.963 108.116 526.976 118.494C539.221 132.542 544.144 149.077 541.744 168.098C540.669 176.114 537.843 183.618 533.568 189.802C529.109 196.458 520.752 204.021 508.496 212.492C499.963 218.477 494.416 223.522 491.856 227.626C488.994 232.736 487.222 238.653 486.704 244.831ZM440.576 250.376L486.512 259.195L480.208 309.154L434.272 300.334L440.576 250.376Z" fill="white"/>
<path d="M596.144 322.235L572.336 298.558L574.272 295.618C576.876 291.395 580.041 287.746 583.632 284.825C586.623 282.627 589.914 281.122 593.344 280.386C600.375 279.375 607.45 278.921 614.528 279.024C620.139 279.024 623.872 277.597 625.728 274.743C626.591 273.589 627.243 272.221 627.641 270.73C628.038 269.239 628.172 267.66 628.032 266.101C627.435 262.633 625.779 259.581 623.408 257.577C622.08 256.162 620.528 255.102 618.851 254.463C617.174 253.825 615.408 253.622 613.664 253.867C610.123 254.341 606.107 257.32 601.616 262.805L579.744 234.807C587.808 224.626 596.875 219.003 606.944 217.937C617.013 216.872 627.904 222.179 639.616 233.86C648.725 242.95 654.533 252.637 657.04 262.924C660.475 276.854 658.731 289.094 651.808 299.643C648.863 304.087 644.99 307.457 640.608 309.39C635.968 311.482 628.693 312.442 618.784 312.271C611.856 312.271 607.024 312.823 604.272 314.244C601.072 316.045 598.281 318.789 596.144 322.235ZM566.4 305.444L591.904 330.917L573.68 358.658L548.176 333.245L566.4 305.444Z" fill="white"/>
<path d="M602.8 151.326L592.496 133.963L593.904 132.68C595.832 130.834 597.995 129.393 600.304 128.418C602.21 127.741 604.201 127.507 606.176 127.728C610.162 128.417 614.107 129.433 617.984 130.766C621.088 131.753 623.312 131.634 624.672 130.411C625.28 129.927 625.798 129.29 626.192 128.542C626.586 127.794 626.848 126.952 626.96 126.07C627.022 124.044 626.449 122.065 625.36 120.546C624.792 119.533 624.062 118.674 623.214 118.022C622.367 117.371 621.42 116.94 620.432 116.757C618.432 116.402 615.872 117.31 612.752 119.52L604 100.203C609.022 96.1955 615.069 94.6212 620.976 95.7832C626.651 97.0065 632.021 101.874 637.088 110.384C641.024 117.04 643.083 123.413 643.264 129.503C643.519 133.215 642.989 136.945 641.724 140.328C640.459 143.71 638.503 146.63 636.048 148.8C633.922 150.705 631.417 151.864 628.8 152.154C624.606 152.256 620.429 151.476 616.448 149.846C613.803 148.734 611.018 148.213 608.224 148.307C606.241 148.744 604.377 149.781 602.8 151.326V151.326ZM588.4 136.764L599.44 155.351L586.144 167.347L575.104 148.78L588.4 136.764Z" fill="white"/>
<path d="M205.344 397.509C191.819 397.48 178.552 392.946 166.944 384.388C150.704 372.549 139.232 353.963 135.328 333.502C124.006 332.529 113.363 326.483 105.405 316.502C97.4479 306.522 92.7254 293.297 92.1279 279.32C88.7194 276.404 85.7062 272.841 83.1999 268.764C77.1121 259.198 74.1043 247.196 74.754 235.062C75.4036 222.928 79.665 211.517 86.7199 203.021C84.0428 188.991 84.3247 174.35 87.5389 160.493C90.753 146.636 96.7922 134.025 105.081 123.864C113.369 113.702 123.63 106.328 134.885 102.445C146.141 98.5623 158.015 98.2998 169.376 101.683C171.855 94.7014 175.764 88.6354 180.719 84.0812C185.675 79.527 191.506 76.6413 197.639 75.7077C203.773 74.7742 209.998 75.8249 215.703 78.7567C221.407 81.6884 226.395 86.4003 230.176 92.4291C231.931 95.2275 233.408 98.2746 234.576 101.505C243.522 99.6925 252.695 100.737 261.22 104.538C269.746 108.34 277.339 114.772 283.276 123.221C289.213 131.67 293.295 141.854 295.133 152.802C296.971 163.749 296.504 175.095 293.776 185.756C299.633 191.91 303.938 200.004 306.18 209.081C308.422 218.158 308.508 227.837 306.427 236.972C304.346 246.107 300.186 254.316 294.439 260.625C288.692 266.935 281.599 271.081 274 272.572C270.572 288.567 262.956 302.716 252.336 312.824C245.652 319.223 237.969 323.854 229.768 326.428C221.567 329.001 213.024 329.461 204.672 327.78C204.512 346.938 208.112 372.924 225.472 391.511C225.639 391.695 225.765 391.931 225.835 392.194C225.905 392.457 225.918 392.739 225.872 393.01C225.824 393.282 225.717 393.532 225.562 393.734C225.407 393.936 225.209 394.081 224.992 394.154C218.603 396.408 211.989 397.537 205.344 397.509V397.509ZM153.168 102.393C143.183 102.431 133.335 105.264 124.367 110.679C115.399 116.093 107.546 123.948 101.398 133.652C95.2507 143.355 90.9702 154.653 88.8793 166.693C86.7884 178.734 86.9418 191.202 89.3279 203.159C89.3828 203.427 89.3776 203.708 89.3128 203.972C89.2479 204.236 89.1259 204.473 88.9599 204.659C82.1276 212.565 77.9428 223.34 77.2291 234.861C76.5155 246.382 79.3247 257.815 85.1039 266.91C87.6454 270.936 90.7046 274.422 94.1599 277.229C94.3274 277.362 94.4668 277.543 94.5669 277.755C94.667 277.968 94.725 278.207 94.7359 278.452C95.1696 291.986 99.6938 304.831 107.419 314.459C115.144 324.088 125.51 329.804 136.48 330.483C136.754 330.502 137.016 330.632 137.224 330.853C137.433 331.074 137.576 331.374 137.632 331.706C141.168 351.772 152.352 370.004 168.288 381.724C184.435 393.733 203.778 397.379 222.096 391.866C204.928 372.135 201.728 345.182 202.144 325.846C202.151 325.622 202.196 325.402 202.277 325.201C202.358 325.001 202.472 324.823 202.613 324.682C202.754 324.54 202.918 324.436 203.093 324.379C203.269 324.321 203.453 324.31 203.632 324.346C218.382 327.786 233.64 324.157 246.294 314.199C258.949 304.24 268.045 288.703 271.728 270.757C271.784 270.456 271.914 270.183 272.1 269.975C272.286 269.766 272.519 269.633 272.768 269.593C280.046 268.352 286.872 264.519 292.409 258.564C297.946 252.609 301.953 244.79 303.939 236.067C305.924 227.344 305.803 218.096 303.588 209.457C301.374 200.818 297.163 193.164 291.472 187.434C291.275 187.237 291.132 186.971 291.06 186.672C290.989 186.372 290.993 186.053 291.072 185.756C293.855 175.474 294.416 164.474 292.699 153.843C290.982 143.212 287.046 133.317 281.28 125.135C275.514 116.952 268.118 110.766 259.821 107.186C251.523 103.606 242.613 102.757 233.968 104.721C233.685 104.789 233.391 104.734 233.138 104.565C232.884 104.396 232.685 104.123 232.576 103.794C230.07 96.2967 225.809 89.8896 220.339 85.39C214.868 80.8903 208.434 78.502 201.858 78.5295C195.282 78.557 188.862 80.9992 183.416 85.5445C177.97 90.0898 173.745 96.5324 171.28 104.051C171.163 104.395 170.951 104.677 170.682 104.847C170.412 105.016 170.103 105.063 169.808 104.978C164.371 103.257 158.781 102.389 153.168 102.393V102.393Z" fill="#E6E6E6"/>
<path d="M160.944 232.618L138.848 239.03L138.336 236.307C137.5 232.505 137.202 228.554 137.456 224.627C137.759 221.472 138.535 218.415 139.744 215.61C142.449 210.069 145.442 204.751 148.704 199.687C151.248 195.602 152.272 192.268 151.76 189.644C151.603 188.498 151.249 187.407 150.722 186.444C150.195 185.481 149.507 184.668 148.704 184.06C146.789 182.909 144.587 182.719 142.56 183.527C141.285 183.845 140.077 184.484 139.012 185.404C137.946 186.324 137.046 187.506 136.368 188.874C134.992 191.656 134.592 195.898 135.152 201.64L112 204.679C110.647 195.24 112.162 185.518 116.256 177.371C120.32 169.597 127.787 164.138 138.656 160.994C147.104 158.535 154.341 158.725 160.368 161.567C168.539 165.394 173.563 172.215 175.44 182.027C176.22 186.185 176.054 190.528 174.96 194.576C173.893 198.878 171.051 204.573 166.432 211.663C163.232 216.636 161.349 220.424 160.784 223.028C160.186 226.191 160.241 229.488 160.944 232.618ZM139.472 246.429L163.152 239.563L168 265.292L144.4 272.079L139.472 246.429Z" fill="#EBEBEB"/>
<path d="M217.2 174.983L201.872 169.222L202.336 167.249C202.923 164.565 203.875 162.023 205.152 159.731C206.246 157.936 207.602 156.411 209.152 155.233C212.397 153.063 215.753 151.158 219.2 149.53C221.92 148.215 223.52 146.617 224 144.736C224.235 143.966 224.334 143.144 224.289 142.324C224.245 141.504 224.059 140.705 223.744 139.981C222.901 138.444 221.613 137.364 220.144 136.962C219.274 136.604 218.354 136.47 217.44 136.569C216.526 136.667 215.639 136.996 214.832 137.534C212.754 139.292 211.202 141.843 210.416 144.795L195.344 136.528C197.248 130.176 200.985 124.914 205.84 121.749C210.555 118.763 216.677 118.691 224.208 121.532C229.281 123.107 233.846 126.547 237.296 131.398C239.15 133.941 240.433 137.038 241.017 140.382C241.6 143.725 241.465 147.199 240.624 150.458C239.901 153.337 238.55 155.917 236.72 157.916C233.673 160.836 230.249 163.104 226.592 164.624C224.159 165.618 221.885 167.127 219.872 169.084C218.599 170.747 217.681 172.774 217.2 174.983ZM200.112 174.056L216.528 180.212L212.128 198.088L195.696 191.932L200.112 174.056Z" fill="#EBEBEB"/>
<path d="M400 800.001C571.332 800.001 710.224 790.001 710.224 777.665C710.224 765.33 571.332 755.33 400 755.33C228.668 755.33 89.7761 765.33 89.7761 777.665C89.7761 790.001 228.668 800.001 400 800.001Z" fill="#F5F5F5"/>
<path d="M252.176 444.606L250.704 443.836C251.861 440.704 252.642 437.38 253.024 433.971L254.624 434.188C254.223 437.789 253.399 441.298 252.176 444.606V444.606ZM251.552 422.034C250.064 417.933 247.748 414.372 244.827 411.688C241.906 409.004 238.476 407.288 234.864 406.703L235.12 404.729C238.994 405.365 242.672 407.212 245.803 410.096C248.934 412.98 251.414 416.804 253.008 421.205L251.552 422.034Z" fill="#0690FF"/>
<path d="M243.2 464.455L227.424 473.334L226.72 471.361C225.641 468.68 224.943 465.79 224.656 462.818C224.504 460.397 224.715 457.962 225.28 455.636C226.646 451.003 228.249 446.482 230.08 442.1C231.488 438.588 231.845 435.898 231.152 434.03C230.895 433.204 230.498 432.454 229.987 431.832C229.477 431.209 228.865 430.728 228.192 430.419C226.621 429.927 224.957 430.188 223.536 431.149C222.623 431.629 221.798 432.332 221.113 433.218C220.428 434.103 219.897 435.152 219.552 436.299C218.859 438.601 219.072 441.85 220.192 446.046L203.2 452.597C201.075 445.77 201.075 438.214 203.2 431.386C205.333 424.809 210.251 419.37 217.952 415.069C223.968 411.675 229.408 410.511 234.256 411.517C237.226 411.959 240.053 413.347 242.457 415.544C244.861 417.741 246.76 420.671 247.968 424.046C249.048 427.014 249.447 430.29 249.12 433.517C248.347 438.559 246.886 443.402 244.8 447.842C243.397 450.783 242.432 454.011 241.952 457.372C241.885 459.824 242.314 462.258 243.2 464.455ZM228.8 478.74L245.664 469.388L252.432 487.718L235.568 497.011L228.8 478.74Z" fill="#0690FF"/>
<path d="M204.224 508.317L196.224 521.734L195.2 520.689C193.64 519.354 192.271 517.707 191.152 515.815C190.302 514.238 189.699 512.477 189.376 510.626C188.859 506.835 188.554 503.005 188.464 499.162C188.336 496.104 187.744 494.111 186.704 493.243C186.267 492.785 185.754 492.451 185.201 492.264C184.649 492.077 184.069 492.04 183.504 492.158C182.28 492.553 181.226 493.514 180.56 494.841C180.083 495.592 179.737 496.456 179.541 497.379C179.346 498.302 179.306 499.265 179.424 500.208C179.98 502.731 181.187 504.961 182.864 506.561L173.264 519.011C169.709 515.355 167.369 510.215 166.688 504.568C166.101 499.123 167.776 493.105 171.712 486.515C174.153 481.998 177.644 478.497 181.728 476.472C183.888 475.371 186.243 474.986 188.561 475.352C190.879 475.719 193.079 476.826 194.944 478.563C196.599 480.077 197.884 482.126 198.656 484.482C199.683 488.298 200.181 492.301 200.128 496.321C200.073 499.004 200.409 501.677 201.12 504.213C201.86 505.88 202.927 507.291 204.224 508.317ZM198.832 524.812L207.408 510.448L217.68 519.781L209.104 534.145L198.832 524.812Z" fill="#0690FF"/>
<path d="M374.544 770.561C373.223 770.563 371.928 770.116 370.799 769.27C369.67 768.425 368.752 767.213 368.144 765.766C361.744 750.455 353.632 732.48 339.104 713.026C338.267 711.909 337.68 710.544 337.4 709.064C337.119 707.583 337.155 706.039 337.504 704.581C342.896 681.476 351.376 649.887 351.456 649.571C351.727 648.429 352.182 647.367 352.793 646.447C353.404 645.527 354.159 644.768 355.013 644.215C355.867 643.663 356.803 643.328 357.764 643.231C358.725 643.134 359.692 643.276 360.608 643.65C361.524 644.024 362.369 644.621 363.093 645.406C363.818 646.191 364.406 647.148 364.825 648.22C365.243 649.292 365.481 650.456 365.527 651.644C365.572 652.832 365.423 654.02 365.088 655.135C365.008 655.431 357.696 682.64 352.4 704.758C363.69 720.816 373.272 738.586 380.912 757.637C381.473 758.99 381.744 760.498 381.697 762.016C381.651 763.534 381.29 765.013 380.647 766.31C380.005 767.606 379.104 768.678 378.03 769.423C376.955 770.167 375.744 770.559 374.512 770.561H374.544Z" fill="#0690FF"/>
<path d="M386.496 777.664H330.832L360.336 757.025L385.056 758.209L386.496 777.664Z" fill="#263238"/>
<path d="M381.182 694.502C406.518 684.735 421.735 655.823 415.17 629.925C408.604 604.027 382.744 590.951 357.408 600.718C332.072 610.485 316.855 639.398 323.42 665.295C329.985 691.193 355.846 704.27 381.182 694.502Z" fill="#263238"/>
<path d="M242.64 615.397C240.983 615.389 239.38 614.675 238.101 613.376C236.822 612.077 235.947 610.273 235.623 608.27C235.299 606.266 235.547 604.186 236.324 602.382C237.101 600.578 238.36 599.16 239.888 598.369C241.131 597.728 242.223 596.71 243.062 595.41C243.902 594.11 244.461 592.569 244.688 590.931C244.831 589.004 245.484 587.189 246.544 585.763C247.605 584.337 249.016 583.38 250.56 583.038C252.342 582.59 254.104 582.03 255.84 581.361C265.568 577.869 277.616 573.469 315.536 586.61C352.944 560.821 353.376 512.441 353.376 510.35C353.376 508.005 354.128 505.756 355.468 504.092C356.808 502.429 358.627 501.486 360.528 501.471V501.471C362.422 501.471 364.24 502.393 365.585 504.038C366.931 505.682 367.695 507.915 367.712 510.251C367.712 512.836 367.488 573.567 319.712 603.973C318.084 605.014 316.192 605.24 314.432 604.604C278.272 591.74 268.032 595.41 259.92 598.35L257.712 599.139C256.645 602.626 255.009 605.806 252.907 608.483C250.805 611.161 248.28 613.279 245.488 614.706C244.586 615.172 243.617 615.407 242.64 615.397V615.397Z" fill="#263238"/>
<path d="M326.528 552.041C312.912 485.311 276.64 313.178 392.88 302.661C497.168 293.21 525.776 464.455 532.736 523.648C536.221 553.599 538.113 583.799 538.4 614.055C538.533 629.36 534.328 644.241 526.51 656.129C518.693 668.017 507.754 676.166 495.584 679.167C438.768 693.413 385.008 695.425 348.784 677.806C344.026 675.438 340.017 671.236 337.356 665.827C334.694 660.418 333.522 654.092 334.016 647.795C335.408 628.695 335.44 595.666 326.528 552.041Z" fill="#0690FF"/>
<path opacity="0.1" d="M532.8 523.687C526.24 467.809 500.448 312.567 410.144 302.701C404.993 302.057 399.802 303.308 395.227 306.296C390.651 309.284 386.895 313.876 384.432 319.492C380.4 329.121 380.528 340.782 386.56 352.324C406.4 390.464 453.872 522.01 446.704 593.693C443.504 626.308 426.848 652.353 441.28 689.013C459.523 687.043 477.656 683.749 495.584 679.147C507.754 676.146 518.693 667.998 526.51 656.11C534.328 644.221 538.533 629.34 538.4 614.035C538.132 583.801 536.261 553.621 532.8 523.687V523.687Z" fill="black"/>
<path d="M517.184 614.982C516.996 614.982 516.815 614.891 516.68 614.729C516.546 614.567 516.468 614.346 516.464 614.114C516.192 583.897 514.305 553.736 510.816 523.825C493.536 376.514 447.024 302.03 376.256 308.462C376.161 308.47 376.066 308.455 375.977 308.418C375.887 308.381 375.804 308.322 375.732 308.245C375.661 308.168 375.603 308.074 375.561 307.969C375.519 307.864 375.494 307.75 375.488 307.634C375.479 307.399 375.544 307.17 375.669 306.993C375.795 306.816 375.97 306.707 376.16 306.686C447.76 300.175 494.832 375.192 512.16 523.569C515.646 553.559 517.539 583.799 517.824 614.094C517.824 614.33 517.748 614.556 517.613 614.722C517.478 614.889 517.295 614.982 517.104 614.982H517.184Z" fill="#263238"/>
<path d="M516.098 699.204C541.434 689.436 556.65 660.524 550.085 634.626C543.52 608.728 517.659 595.652 492.323 605.419C466.987 615.187 451.771 644.099 458.336 669.997C464.901 695.894 490.762 708.971 516.098 699.204Z" fill="#263238"/>
<path d="M520.48 770.56C519.159 770.564 517.863 770.119 516.733 769.273C515.604 768.427 514.686 767.213 514.08 765.766C507.68 750.454 499.568 732.48 485.024 713.025C484.194 711.903 483.611 710.538 483.331 709.06C483.051 707.581 483.083 706.039 483.424 704.58C488.832 681.475 497.296 649.886 497.392 649.57C497.688 648.468 498.158 647.448 498.774 646.569C499.39 645.69 500.14 644.97 500.981 644.449C501.823 643.927 502.74 643.616 503.679 643.531C504.618 643.447 505.562 643.591 506.456 643.957C507.35 644.322 508.177 644.901 508.89 645.66C509.602 646.42 510.187 647.345 510.609 648.383C511.032 649.421 511.285 650.551 511.353 651.71C511.422 652.868 511.304 654.032 511.008 655.134C510.928 655.43 503.632 682.639 498.336 704.758C509.627 720.811 519.204 738.582 526.832 757.637C527.393 758.989 527.664 760.497 527.618 762.015C527.571 763.534 527.21 765.012 526.567 766.309C525.925 767.606 525.024 768.678 523.95 769.422C522.875 770.166 521.664 770.558 520.432 770.56H520.48Z" fill="#0690FF"/>
<path d="M505.408 500.779C503.803 500.781 502.244 500.119 500.98 498.9C499.715 497.681 498.818 495.975 498.431 494.055C498.045 492.134 498.191 490.109 498.846 488.302C499.502 486.495 500.629 485.012 502.048 484.087C503.424 483.179 534.672 462.126 543.44 411.536C522.64 400.803 485.168 376.553 476.976 364.36C476.17 363.181 475.619 361.769 475.376 360.256C474.43 352.97 474.98 345.508 476.976 338.552L473.2 329.554C472.326 327.461 472.162 325.026 472.744 322.783C473.326 320.541 474.607 318.675 476.304 317.597C478.001 316.519 479.977 316.317 481.795 317.035C483.613 317.753 485.126 319.332 486 321.425L491.424 334.369C492.008 335.723 492.294 337.243 492.255 338.776C492.215 340.309 491.852 341.803 491.2 343.11C489.736 346.716 489.115 350.754 489.408 354.771C498.64 365.05 535.808 389.379 554.096 397.725C555.646 398.433 556.95 399.781 557.787 401.539C558.624 403.298 558.942 405.359 558.688 407.373C550.576 472.031 510.464 498.668 508.768 499.773C507.731 500.442 506.578 500.787 505.408 500.779Z" fill="#263238"/>
<path d="M482.512 363.137C481.866 363.133 481.233 362.916 480.68 362.507C480.126 362.098 479.671 361.512 479.364 360.812C479.056 360.112 478.907 359.323 478.931 358.528C478.956 357.732 479.154 356.959 479.504 356.29C479.76 355.817 485.68 344.787 494.704 341.808C495.159 341.658 495.633 341.619 496.1 341.695C496.567 341.771 497.017 341.959 497.425 342.25C497.833 342.54 498.191 342.927 498.477 343.388C498.764 343.848 498.974 344.374 499.096 344.935C499.218 345.496 499.249 346.081 499.187 346.657C499.126 347.233 498.973 347.788 498.738 348.291C498.502 348.794 498.189 349.235 497.815 349.588C497.441 349.942 497.015 350.201 496.56 350.351C490.272 352.443 485.552 361.046 485.52 361.124C485.195 361.743 484.749 362.251 484.223 362.602C483.698 362.954 483.11 363.137 482.512 363.137V363.137Z" fill="#263238"/>
<path d="M532.432 777.664H476.768L506.272 757.025L530.992 758.209L532.432 777.664Z" fill="#263238"/>
<path d="M415.868 513.296C436.923 510.997 452.631 490.188 450.953 466.818C449.275 443.448 430.846 426.366 409.791 428.665C388.737 430.964 373.029 451.773 374.707 475.143C376.385 498.513 394.813 515.595 415.868 513.296Z" fill="white"/>
<path d="M408.717 497.892C414.3 495.931 416.479 484.18 413.584 471.645C410.689 459.111 403.815 450.54 398.232 452.501C392.648 454.463 390.469 466.214 393.364 478.748C396.26 491.282 403.133 499.853 408.717 497.892Z" fill="#263238"/>
<path d="M369.28 478.976C393.44 475.149 441.28 458.318 449.168 451.531C442.96 429.116 413.968 409.938 388.176 420.751C364.8 430.478 369.28 478.976 369.28 478.976Z" fill="#263238"/>
<path d="M373.968 493.38C403.968 486.356 442.96 474.557 454.112 467C453.424 491.111 447.712 515.558 417.12 523.825C392.096 530.553 373.968 493.38 373.968 493.38Z" fill="#263238"/>
<path d="M349.256 516.558C360.104 507.707 361.534 486.806 352.451 469.875C343.367 452.944 327.209 446.394 316.361 455.245C305.513 464.096 304.083 484.997 313.167 501.928C322.251 518.858 338.408 525.409 349.256 516.558Z" fill="white"/>
<path d="M333.344 486.514C335.152 497.09 333.584 505.91 329.824 506.245C326.064 506.581 321.552 498.235 319.728 487.659C317.904 477.083 319.488 468.283 323.232 467.928C326.976 467.573 331.52 475.939 333.344 486.514Z" fill="#263238"/>
<path d="M303.6 482.47C319.808 484.818 352 482.193 357.344 478.523C353.392 459.523 334.224 437.819 316.8 440.581C301.088 443.067 303.6 482.47 303.6 482.47Z" fill="#263238"/>
<path d="M306.608 494.92C326.752 496.045 353.008 495.413 360.496 491.921C359.808 510.882 355.776 528.956 335.2 528.66C318.4 528.423 306.608 494.92 306.608 494.92Z" fill="#263238"/>
<path d="M422.544 408.814C404.235 408.937 386.329 402.194 371.2 389.477C369.683 388.062 368.684 385.961 368.423 383.637C368.162 381.314 368.66 378.957 369.808 377.086C370.956 375.216 372.659 373.984 374.544 373.662C376.428 373.34 378.339 373.954 379.856 375.37C396.789 388.988 417.334 394.014 437.2 389.399C438.126 389.182 439.077 389.193 439.999 389.43C440.921 389.667 441.796 390.125 442.575 390.779C443.354 391.433 444.02 392.27 444.536 393.242C445.053 394.213 445.409 395.301 445.584 396.442C445.759 397.584 445.751 398.757 445.559 399.894C445.367 401.031 444.995 402.111 444.464 403.071C443.934 404.031 443.255 404.853 442.467 405.489C441.679 406.126 440.798 406.565 439.872 406.781C434.16 408.122 428.359 408.803 422.544 408.814V408.814Z" fill="#263238"/>
<path d="M294.208 393.562C293.059 393.555 291.928 393.209 290.91 392.553C289.892 391.897 289.016 390.95 288.355 389.791C287.694 388.632 287.268 387.295 287.111 385.892C286.955 384.488 287.073 383.059 287.456 381.723C291.248 368.661 297.568 360.197 306.208 356.527C321.856 349.877 338.72 362.801 339.44 363.354C341.012 364.627 342.116 366.61 342.515 368.876C342.914 371.142 342.577 373.511 341.576 375.474C340.575 377.437 338.989 378.838 337.16 379.375C335.331 379.913 333.403 379.545 331.792 378.349C328.592 375.843 318.4 370.042 310.832 373.278C306.48 375.153 303.248 379.868 300.96 387.721C300.457 389.432 299.539 390.911 298.331 391.955C297.123 393 295.684 393.561 294.208 393.562Z" fill="#263238"/>
<path d="M350.768 542.886C350.567 542.885 350.367 542.845 350.176 542.767C349.633 542.579 349.173 542.132 348.897 541.525C348.621 540.918 348.551 540.201 348.704 539.531C349.34 537.397 350.312 535.438 351.564 533.769C352.816 532.1 354.324 530.752 356 529.804C364.224 524.575 376.8 525.661 393.296 533.02C393.563 533.139 393.808 533.322 394.017 533.558C394.226 533.795 394.395 534.08 394.514 534.397C394.633 534.715 394.7 535.058 394.71 535.408C394.721 535.757 394.675 536.106 394.576 536.434C394.481 536.762 394.335 537.064 394.144 537.321C393.954 537.579 393.724 537.787 393.468 537.934C393.212 538.081 392.935 538.164 392.652 538.177C392.37 538.19 392.089 538.134 391.824 538.012C372.896 529.567 363.024 531.382 358.224 534.421C355.827 535.675 353.922 538.032 352.912 540.991C352.774 541.555 352.489 542.046 352.102 542.389C351.714 542.732 351.245 542.906 350.768 542.886V542.886Z" fill="#263238"/>
<path d="M283.008 533.158C257.973 535.901 233.623 544.719 211.36 559.104C223.712 556.224 267.92 623.684 279.28 675.694C300.256 666.125 324.704 659.594 350.768 654.484C334.976 600.875 306.096 540.123 283.008 533.158Z" fill="#0690FF"/>
<path opacity="0.6" d="M283.008 533.158C257.973 535.901 233.623 544.719 211.36 559.104C223.712 556.224 267.92 623.684 279.28 675.694C300.256 666.125 324.704 659.594 350.768 654.484C334.976 600.875 306.096 540.123 283.008 533.158Z" fill="white"/>
<path d="M283.008 533.158C255.68 529.35 211.312 557.565 211.312 557.565C203.456 563.741 205.584 575.323 209.872 580.236C213.984 572.955 259.84 554.014 277.072 551.468C268.512 541.682 276.48 534.5 283.008 533.158Z" fill="#0690FF"/>
<path opacity="0.2" d="M283.008 533.158C255.68 529.35 211.312 557.565 211.312 557.565C203.456 563.741 205.584 575.323 209.872 580.236C213.984 572.955 259.84 554.014 277.072 551.468C268.512 541.682 276.48 534.5 283.008 533.158Z" fill="white"/>
<path d="M242.656 615.397C241.465 615.403 240.291 615.045 239.239 614.357C238.186 613.669 237.288 612.67 236.624 611.451C231.424 601.585 234.672 586.609 235.376 583.689C235.976 581.523 237.232 579.727 238.881 578.678C240.531 577.629 242.446 577.408 244.224 578.061C246.003 578.714 247.508 580.19 248.424 582.181C249.339 584.172 249.595 586.523 249.136 588.74C247.968 593.693 247.728 600.027 248.656 601.763C249.695 603.731 250.057 606.127 249.664 608.424C249.271 610.722 248.155 612.733 246.56 614.016C245.398 614.941 244.039 615.422 242.656 615.397V615.397Z" fill="#263238"/>
<path d="M478.224 234.992H454V221.516L478.224 186H489.808V222.285H495.808V234.992H489.808V246.021H478.224V234.992ZM478.224 222.285V203.718L465.424 222.285H478.224Z" fill="#0690FF"/>
<path d="M499.952 216.287C499.952 205.08 501.589 197.233 504.864 192.748C508.139 188.262 513.125 186.02 519.824 186.02C522.542 185.906 525.253 186.408 527.824 187.499C529.701 188.333 531.422 189.628 532.88 191.307C534.105 192.757 535.147 194.427 535.968 196.26C536.771 198.179 537.378 200.214 537.776 202.317C538.679 206.836 539.125 211.475 539.104 216.129C539.104 226.823 537.637 234.656 534.704 239.628C531.771 244.601 526.693 247.041 519.472 246.949C516.113 247.121 512.768 246.309 509.712 244.581C507.209 242.97 505.099 240.566 503.6 237.616C502.27 234.87 501.359 231.848 500.912 228.698C500.249 224.612 499.928 220.453 499.952 216.287V216.287ZM513.136 216.287C513.136 223.811 513.669 228.941 514.736 231.677C515.086 232.869 515.722 233.902 516.559 234.639C517.397 235.375 518.396 235.78 519.424 235.801C520.074 235.816 520.72 235.668 521.322 235.366C521.924 235.064 522.471 234.615 522.928 234.045C524.074 232.504 524.83 230.584 525.104 228.52C525.673 224.615 525.909 220.647 525.808 216.681C525.808 208.789 525.28 203.58 524.208 200.897C523.818 199.723 523.153 198.721 522.298 198.017C521.442 197.314 520.436 196.943 519.408 196.95C518.356 196.915 517.322 197.297 516.458 198.039C515.594 198.781 514.946 199.845 514.608 201.074C513.637 203.797 513.147 208.881 513.136 216.326V216.287Z" fill="#0690FF"/>
<path d="M544.528 216.287C544.528 205.08 546.165 197.233 549.44 192.748C552.715 188.262 557.701 186.02 564.4 186.02C567.118 185.906 569.829 186.408 572.4 187.499C574.277 188.333 575.998 189.628 577.456 191.307C578.686 192.752 579.728 194.422 580.544 196.26C581.347 198.179 581.954 200.214 582.352 202.317C583.261 206.835 583.712 211.474 583.696 216.129C583.696 226.823 582.224 234.656 579.28 239.628C576.336 244.601 571.275 247.041 564.096 246.949C560.737 247.121 557.392 246.309 554.336 244.581C551.834 242.975 549.729 240.57 548.24 237.616C546.898 234.876 545.981 231.851 545.536 228.698C544.857 224.614 544.52 220.455 544.528 216.287V216.287ZM557.712 216.287C557.712 223.811 558.245 228.941 559.312 231.677C559.662 232.869 560.298 233.902 561.135 234.639C561.973 235.375 562.972 235.78 564 235.801C564.65 235.816 565.296 235.668 565.898 235.366C566.5 235.064 567.047 234.615 567.504 234.045C568.65 232.501 569.411 230.583 569.696 228.52C570.257 224.614 570.493 220.647 570.4 216.681C570.4 208.789 569.867 203.527 568.8 200.897C568.407 199.726 567.741 198.727 566.886 198.024C566.032 197.322 565.027 196.948 564 196.95C562.948 196.919 561.916 197.301 561.052 198.043C560.189 198.785 559.54 199.846 559.2 201.074C558.197 203.797 557.696 208.881 557.696 216.326L557.712 216.287Z" fill="#0690FF"/>
<path d="M230 186.007H269.616V198.575H244.816V207.967H267.824V220.003H244.816V231.625H270.336V244.983H230V186.007Z" fill="#263238"/>
<path d="M278.496 245.002V186.006H303.136C306.669 185.852 310.2 186.344 313.616 187.466C315.998 188.39 318.057 190.282 319.456 192.833C320.515 194.707 321.249 196.829 321.613 199.068C321.978 201.307 321.965 203.615 321.574 205.847C321.184 208.079 320.425 210.189 319.345 212.044C318.265 213.898 316.887 215.459 315.296 216.629C313.676 217.735 311.927 218.526 310.112 218.977C311.473 219.458 312.768 220.19 313.952 221.147C314.839 222.059 315.634 223.099 316.32 224.245C317.111 225.38 317.807 226.609 318.4 227.915L325.552 245.002H308.848L300.944 226.968C300.321 225.241 299.41 223.695 298.272 222.429C297.21 221.524 295.947 221.048 294.656 221.068H293.344V245.002H278.496ZM293.344 209.92H299.584C300.902 209.791 302.208 209.521 303.488 209.111C304.447 208.881 305.302 208.22 305.888 207.256C306.606 206.093 306.949 204.642 306.852 203.185C306.754 201.728 306.223 200.367 305.36 199.364C303.7 198.141 301.764 197.609 299.84 197.845H293.344V209.92Z" fill="#263238"/>
<path d="M330.48 245.002V186.007H355.12C358.653 185.851 362.185 186.343 365.6 187.467C367.982 188.391 370.041 190.282 371.44 192.833C372.495 194.708 373.226 196.829 373.589 199.066C373.952 201.303 373.939 203.608 373.551 205.839C373.162 208.07 372.407 210.178 371.331 212.034C370.255 213.89 368.882 215.454 367.296 216.629C365.671 217.738 363.917 218.53 362.096 218.977C364.647 219.656 366.878 221.549 368.304 224.245C369.095 225.38 369.791 226.609 370.384 227.915L377.536 245.002H360.832L352.928 226.968C352.305 225.241 351.394 223.695 350.256 222.43C349.194 221.525 347.931 221.049 346.64 221.068H345.376V245.002H330.48ZM345.376 209.92H351.616C352.934 209.792 354.24 209.521 355.52 209.112C356.482 208.891 357.34 208.228 357.92 207.257C358.638 206.093 358.981 204.643 358.884 203.186C358.786 201.728 358.255 200.367 357.392 199.364C355.733 198.136 353.797 197.603 351.872 197.845H345.376V209.92Z" fill="#263238"/>
<path d="M379.264 215.543C379.264 205.915 381.44 198.417 385.792 193.05C390.144 187.683 396.203 185 403.968 185C411.936 185 418.075 187.631 422.384 192.892C426.693 198.154 428.827 205.54 428.784 215.05C429.002 220.932 428.052 226.791 426.016 232.117C424.187 236.48 421.346 240.072 417.856 242.437C413.743 244.978 409.172 246.18 404.576 245.929C399.975 246.122 395.398 245.037 391.184 242.752C387.561 240.539 384.562 237.032 382.576 232.69C380.248 227.443 379.104 221.521 379.264 215.543V215.543ZM394.048 215.543C394.048 221.502 394.949 225.784 396.752 228.388C397.7 229.612 398.84 230.586 400.103 231.251C401.365 231.917 402.723 232.26 404.096 232.26C405.469 232.26 406.827 231.917 408.089 231.251C409.352 230.586 410.491 229.612 411.44 228.388C413.179 225.836 414.053 221.233 414.064 214.577C414.064 209.039 413.152 204.981 411.328 202.403C410.404 201.127 409.261 200.122 407.982 199.459C406.704 198.797 405.321 198.495 403.936 198.575C402.576 198.517 401.224 198.843 399.982 199.526C398.74 200.21 397.641 201.234 396.768 202.521C394.976 205.303 394.048 209.624 394.048 215.622V215.543Z" fill="#263238"/>
<path d="M259.664 147.775V103.853H273.04C275.273 103.749 277.499 104.206 279.584 105.195C281.19 106.032 282.544 107.467 283.456 109.299C284.36 111.03 284.848 113.041 284.864 115.1C284.867 116.98 284.434 118.821 283.616 120.408C282.691 122.128 281.394 123.495 279.872 124.354C281.834 124.967 283.581 126.353 284.848 128.3C286.01 130.216 286.618 132.557 286.576 134.949C286.591 136.939 286.229 138.905 285.52 140.691C284.927 142.295 284.033 143.702 282.912 144.795C281.741 145.831 280.413 146.569 279.008 146.966C277.125 147.497 275.196 147.743 273.264 147.696L259.664 147.775ZM264.464 122.282H272.176C273.687 122.363 275.199 122.19 276.672 121.769C277.743 121.435 278.694 120.671 279.376 119.599C280.009 118.471 280.329 117.121 280.288 115.751C280.332 114.361 280.037 112.986 279.44 111.805C278.887 110.697 278.021 109.881 277.008 109.516C275.231 109.011 273.406 108.806 271.584 108.905H264.464V122.282ZM264.464 142.585H273.344C274.413 142.621 275.483 142.555 276.544 142.388C277.505 142.204 278.428 141.795 279.264 141.184C280.03 140.578 280.653 139.734 281.072 138.738C281.554 137.593 281.796 136.318 281.776 135.028C281.808 133.51 281.449 132.018 280.752 130.766C280.075 129.54 279.074 128.64 277.92 128.221C276.222 127.647 274.464 127.394 272.704 127.471H264.464V142.585Z" fill="#263238"/>
<path d="M309.376 143.828C307.987 145.344 306.402 146.564 304.688 147.438C303.152 148.138 301.526 148.492 299.888 148.484C297.527 148.681 295.193 147.764 293.36 145.919C292.613 145.1 292.021 144.089 291.626 142.957C291.231 141.825 291.042 140.6 291.072 139.368C291.06 137.921 291.335 136.492 291.873 135.206C292.412 133.92 293.197 132.816 294.16 131.989C295.137 131.176 296.219 130.576 297.36 130.213C298.641 129.843 299.939 129.572 301.248 129.404C303.894 129.106 306.51 128.485 309.056 127.55C309.056 126.8 309.056 126.346 309.056 126.129C309.13 125.293 309.058 124.446 308.845 123.647C308.633 122.847 308.285 122.113 307.824 121.492C306.398 120.147 304.622 119.494 302.832 119.657C301.236 119.517 299.644 119.985 298.272 120.999C297.091 122.22 296.289 123.907 296 125.774L291.728 125.064C292.014 123.076 292.671 121.198 293.648 119.578C294.693 118.073 296.064 116.964 297.6 116.382C299.49 115.593 301.477 115.213 303.472 115.257C305.279 115.192 307.081 115.513 308.8 116.204C309.966 116.676 311.014 117.512 311.84 118.631C312.525 119.703 312.991 120.961 313.2 122.301C313.385 123.948 313.46 125.611 313.424 127.273V134.475C313.352 137.649 313.443 140.826 313.696 143.986C313.888 145.329 314.261 146.623 314.8 147.813H310.24C309.759 146.56 309.466 145.21 309.376 143.828V143.828ZM309.008 131.772C306.693 132.765 304.293 133.427 301.856 133.745C300.552 133.917 299.269 134.275 298.032 134.811C297.332 135.181 296.733 135.79 296.304 136.567C295.807 137.533 295.606 138.686 295.738 139.819C295.87 140.951 296.326 141.988 297.024 142.742C298.137 143.785 299.518 144.297 300.912 144.183C302.482 144.211 304.032 143.735 305.408 142.802C306.665 141.962 307.678 140.658 308.304 139.072C308.843 137.351 309.082 135.509 309.008 133.666V131.772Z" fill="#263238"/>
<path d="M336.976 147.775V143.829C336.228 145.348 335.162 146.59 333.889 147.424C332.616 148.257 331.184 148.651 329.744 148.564C327.728 148.572 325.755 147.837 324.08 146.453C322.308 144.996 320.914 142.941 320.064 140.533C319.074 137.819 318.588 134.867 318.64 131.891C318.609 128.929 319.044 125.988 319.92 123.229C320.682 120.809 322.035 118.741 323.792 117.31C325.513 115.967 327.516 115.281 329.552 115.337C330.999 115.3 332.43 115.714 333.712 116.541C334.886 117.308 335.904 118.394 336.688 119.717V103.933H341.04V147.775H336.976ZM323.2 131.99C323.001 135.245 323.744 138.481 325.296 141.125C325.876 142.061 326.621 142.821 327.475 143.348C328.329 143.874 329.269 144.153 330.224 144.164C331.163 144.168 332.09 143.909 332.935 143.407C333.78 142.904 334.522 142.171 335.104 141.264C336.596 138.708 337.305 135.583 337.104 132.444C337.328 129.05 336.611 125.662 335.072 122.835C334.481 121.879 333.718 121.106 332.844 120.575C331.969 120.045 331.007 119.771 330.032 119.777C329.103 119.785 328.189 120.054 327.357 120.563C326.525 121.073 325.798 121.809 325.232 122.716C323.725 125.436 323.009 128.705 323.2 131.99V131.99Z" fill="#263238"/>
<path d="M362.384 147.774V103.853H378.192C380.646 103.722 383.099 104.123 385.44 105.037C387.105 105.845 388.502 107.318 389.408 109.22C390.4 111.213 390.916 113.511 390.896 115.85C390.926 117.3 390.723 118.744 390.301 120.098C389.878 121.452 389.243 122.691 388.432 123.742C386.343 126.14 383.647 127.575 380.8 127.807C381.843 128.376 382.818 129.119 383.696 130.017C385.202 131.775 386.519 133.765 387.616 135.936L393.808 147.774H387.872L383.152 138.639C381.776 135.995 380.64 133.982 379.76 132.582C379.092 131.45 378.282 130.458 377.36 129.642C376.698 129.102 375.968 128.702 375.2 128.458C374.332 128.293 373.454 128.227 372.576 128.26H367.104V147.774H362.384ZM367.104 123.209H377.248C378.958 123.293 380.668 123.02 382.304 122.4C383.442 121.919 384.42 120.99 385.088 119.756C385.707 118.582 386.035 117.211 386.032 115.81C386.052 114.84 385.898 113.877 385.58 112.99C385.262 112.103 384.788 111.314 384.192 110.68C382.517 109.183 380.46 108.482 378.4 108.707H367.104V123.209Z" fill="#263238"/>
<path d="M415.408 137.573L419.936 138.244C419.357 141.241 417.969 143.906 416 145.801C413.511 147.808 410.552 148.74 407.587 148.45C404.622 148.161 401.819 146.667 399.616 144.203C397.275 140.866 396.087 136.532 396.304 132.128C396.073 127.591 397.278 123.122 399.664 119.658C400.772 118.191 402.122 117.036 403.624 116.27C405.126 115.504 406.744 115.145 408.368 115.218C409.948 115.153 411.522 115.507 412.982 116.256C414.442 117.005 415.755 118.131 416.832 119.559C419.157 122.967 420.331 127.347 420.112 131.792C420.112 132.108 420.112 132.601 420.112 133.233H400.912C400.87 136.173 401.681 139.035 403.2 141.303C403.887 142.213 404.723 142.933 405.652 143.416C406.582 143.899 407.584 144.134 408.592 144.104C410.065 144.16 411.511 143.612 412.704 142.546C413.978 141.248 414.918 139.52 415.408 137.573V137.573ZM401.008 128.833H415.408C415.373 126.675 414.816 124.579 413.808 122.815C413.162 121.811 412.336 121.007 411.395 120.466C410.453 119.925 409.422 119.662 408.384 119.697C407.45 119.66 406.519 119.856 405.647 120.273C404.776 120.69 403.981 121.319 403.312 122.124C401.89 123.922 401.077 126.321 401.04 128.833H401.008Z" fill="#263238"/>
<path d="M441.888 160.027V144.44C441.139 145.682 440.163 146.689 439.04 147.38C437.833 148.146 436.494 148.545 435.136 148.544C433.627 148.547 432.136 148.143 430.768 147.359C429.399 146.575 428.187 145.43 427.216 144.006C424.867 140.541 423.677 136.103 423.888 131.595C423.853 128.642 424.316 125.713 425.248 122.992C426.039 120.612 427.408 118.592 429.168 117.211C430.85 115.909 432.798 115.224 434.784 115.238C436.28 115.184 437.761 115.608 439.084 116.469C440.408 117.33 441.528 118.598 442.336 120.151V115.968H446.272V160.027H441.888ZM428.4 131.812C428.202 135.088 428.938 138.347 430.48 141.026C431.073 141.976 431.833 142.747 432.704 143.28C433.574 143.814 434.532 144.095 435.504 144.104C436.431 144.096 437.344 143.828 438.175 143.323C439.007 142.817 439.734 142.086 440.304 141.184C441.817 138.61 442.538 135.455 442.336 132.286C442.53 128.89 441.78 125.514 440.208 122.716C439.628 121.743 438.875 120.948 438.007 120.39C437.139 119.832 436.179 119.528 435.2 119.5C434.266 119.506 433.346 119.78 432.513 120.301C431.68 120.821 430.956 121.574 430.4 122.499C428.893 125.232 428.188 128.517 428.4 131.812Z" fill="#263238"/>
<path d="M470.048 147.774V143.137C469.178 144.834 467.965 146.224 466.53 147.172C465.094 148.119 463.484 148.592 461.856 148.544C460.386 148.559 458.929 148.19 457.584 147.458C456.431 146.894 455.42 145.961 454.656 144.755C453.974 143.579 453.509 142.231 453.296 140.809C453.08 139.139 452.989 137.448 453.024 135.758V116.027H457.408V133.785C457.359 135.692 457.45 137.6 457.68 139.487C457.907 140.832 458.528 142.026 459.424 142.841C460.393 143.674 461.555 144.096 462.736 144.045C464.036 144.049 465.313 143.619 466.432 142.802C467.536 142.045 468.399 140.848 468.88 139.408C469.434 137.41 469.678 135.302 469.6 133.193V115.968H473.968V147.774H470.048Z" fill="#263238"/>
<path d="M498.512 137.574L503.04 138.245C502.447 141.244 501.049 143.907 499.072 145.802C496.583 147.808 493.624 148.74 490.659 148.451C487.694 148.162 484.891 146.668 482.688 144.203C480.347 140.866 479.159 136.532 479.376 132.128C479.147 127.596 480.345 123.129 482.72 119.658C483.832 118.193 485.186 117.039 486.69 116.273C488.194 115.507 489.814 115.148 491.44 115.219C493.02 115.154 494.594 115.508 496.054 116.256C497.514 117.005 498.827 118.132 499.904 119.56C502.229 122.968 503.403 127.347 503.184 131.793C503.184 132.108 503.184 132.602 503.184 133.233H483.984C483.978 136.181 484.836 139.033 486.4 141.264C487.086 142.176 487.922 142.898 488.851 143.381C489.781 143.864 490.783 144.097 491.792 144.065C493.265 144.121 494.711 143.573 495.904 142.507C497.138 141.204 498.043 139.492 498.512 137.574V137.574ZM484.112 128.833H498.512C498.477 126.675 497.92 124.58 496.912 122.815C496.265 121.814 495.438 121.012 494.497 120.471C493.556 119.93 492.526 119.665 491.488 119.698C490.551 119.658 489.617 119.852 488.743 120.269C487.868 120.686 487.071 121.317 486.4 122.125C484.984 123.926 484.177 126.325 484.144 128.833H484.112Z" fill="#263238"/>
<path d="M506.784 138.323L511.104 137.474C511.251 139.371 511.977 141.128 513.136 142.387C514.475 143.618 516.124 144.226 517.792 144.104C519.383 144.255 520.967 143.718 522.272 142.585C522.719 142.17 523.083 141.634 523.336 141.018C523.588 140.402 523.722 139.723 523.728 139.033C523.736 138.457 523.622 137.889 523.398 137.384C523.173 136.878 522.846 136.454 522.448 136.152C521.019 135.323 519.515 134.707 517.968 134.318C515.686 133.701 513.453 132.836 511.296 131.733C510.155 131.105 509.188 130.079 508.514 128.782C507.84 127.485 507.489 125.973 507.504 124.432C507.497 123.055 507.772 121.698 508.304 120.486C508.807 119.296 509.524 118.264 510.4 117.467C511.252 116.757 512.192 116.224 513.184 115.889C514.418 115.461 515.694 115.249 516.976 115.257C518.789 115.214 520.595 115.575 522.304 116.323C523.644 116.87 524.824 117.893 525.696 119.263C526.536 120.729 527.084 122.419 527.296 124.196L523.008 124.906C522.953 124.142 522.775 123.399 522.484 122.721C522.193 122.043 521.794 121.444 521.312 120.96C520.158 119.967 518.764 119.487 517.36 119.598C515.856 119.434 514.35 119.863 513.056 120.822C512.672 121.142 512.356 121.57 512.133 122.071C511.911 122.572 511.788 123.131 511.776 123.702C511.76 124.416 511.947 125.114 512.304 125.675C512.752 126.329 513.331 126.826 513.984 127.116C514.416 127.313 515.712 127.767 517.856 128.477C520.055 129.149 522.219 129.986 524.336 130.983C525.494 131.577 526.492 132.562 527.216 133.824C527.942 135.193 528.306 136.807 528.256 138.441C528.254 140.255 527.814 142.027 526.992 143.532C526.053 145.203 524.733 146.493 523.2 147.241C521.48 148.138 519.627 148.581 517.76 148.544C515.037 148.769 512.332 147.859 510.08 145.959C508.24 144.017 507.062 141.29 506.784 138.323V138.323Z" fill="#263238"/>
<path d="M542.992 142.999L543.632 147.755C542.546 148.065 541.435 148.23 540.32 148.248C539.042 148.337 537.768 148.01 536.624 147.301C535.806 146.765 535.154 145.912 534.768 144.874C534.312 142.799 534.133 140.646 534.24 138.501V120.151H531.04V115.968H534.24V108.076L538.592 104.84V115.968H542.992V120.151H538.592V138.777C538.545 139.772 538.621 140.77 538.816 141.737C538.976 142.176 539.237 142.547 539.568 142.802C540.034 143.087 540.553 143.216 541.072 143.177C541.715 143.171 542.356 143.111 542.992 142.999V142.999Z" fill="#263238"/>
</svg>
